<svg width="57" height="56" viewBox="0 0 57 56" fill="none" xmlns="http://www.w3.org/2000/svg">
<rect x="0.410156" width="56" height="56" rx="6.56593" fill="#35B48B"/>
<path d="M28.9102 6C38.5315 6 46.6756 12.3202 49.4199 21.0352C48.7738 20.8341 48.0875 20.7247 47.376 20.7246H37.2949C36.8428 20.7246 36.4486 20.4163 36.3369 19.9746C36.1779 19.3479 35.9939 18.7074 35.79 18.0703C35.1732 16.1578 33.417 14.8732 31.4199 14.873H26.248C24.2505 14.873 22.4936 16.1584 21.877 18.0713C20.8824 21.1616 20.378 24.3758 20.3779 27.624C20.3779 30.8726 20.8824 34.0869 21.877 37.1777C22.4936 39.0903 24.2504 40.376 26.248 40.376H31.4199C33.4175 40.3758 35.174 39.0906 35.791 37.1768C35.992 36.5483 36.1744 35.9086 36.334 35.2754C36.4454 34.833 36.8398 34.5234 37.293 34.5234H47.376C48.0546 34.5234 48.7103 34.4238 49.3301 34.2402C46.5021 42.8124 38.4297 49 28.9102 49C17.036 49 7.41016 39.3741 7.41016 27.5C7.41016 15.6259 17.036 6 28.9102 6Z" fill="white"/>
</svg>
