<svg width="155" height="48" viewBox="0 0 155 48" fill="none" xmlns="http://www.w3.org/2000/svg">
<path d="M66.1501 36.2668C64.1541 36.2668 62.3543 35.9342 60.7505 35.2688C59.1585 34.6034 57.8043 33.6828 56.6875 32.5068C55.5709 31.3188 54.7155 29.9288 54.1215 28.3368C53.5275 26.733 53.2305 24.9984 53.2305 23.1334C53.2305 20.5672 53.7591 18.2982 54.8165 16.3261C55.8739 14.354 57.3351 12.8156 59.2003 11.7107C61.0773 10.594 63.2335 10.0356 65.6689 10.0356C66.5125 10.0356 67.3321 10.095 68.1281 10.2138C68.9239 10.3326 69.6723 10.499 70.3733 10.7128C71.0861 10.9266 71.7395 11.1524 72.3335 11.39C72.9277 11.6276 73.4385 11.8652 73.8661 12.1028L73.6167 14.5619C72.7019 14.0273 71.8049 13.5937 70.9257 13.2611C70.0467 12.9284 69.1795 12.6849 68.3241 12.5304C67.4805 12.376 66.6489 12.2988 65.8293 12.2988C63.8809 12.2988 62.1523 12.7443 60.6437 13.6353C59.1467 14.5144 57.9707 15.7677 57.1153 17.3953C56.2599 19.011 55.8323 20.9296 55.8323 23.1512C55.8323 24.648 56.0521 26.0558 56.4915 27.3746C56.9311 28.6814 57.5905 29.8338 58.4695 30.8316C59.3605 31.8296 60.4595 32.6136 61.7663 33.1838C63.0849 33.7422 64.6057 34.0214 66.3283 34.0214C66.9459 34.0214 67.5579 33.9858 68.1637 33.9144C68.7813 33.8314 69.3933 33.7124 69.9991 33.558C70.6051 33.3918 71.1991 33.172 71.7811 32.8988C72.3633 32.6254 72.9217 32.2988 73.4563 31.9186L73.7057 34.36C73.2067 34.6808 72.6543 34.9658 72.0485 35.2154C71.4545 35.453 70.8307 35.649 70.1773 35.8034C69.5359 35.9578 68.8705 36.0708 68.1815 36.142C67.5043 36.225 66.8271 36.2668 66.1501 36.2668ZM76.4159 35.8926C76.4159 34.467 76.4159 33.0948 76.4159 31.776C76.4159 30.4574 76.4159 29.02 76.4159 27.4636V18.9635C76.4159 17.3834 76.4159 15.9341 76.4159 14.6154C76.4159 13.2848 76.4159 11.9067 76.4159 10.4811H91.9017V12.673C90.6899 12.673 89.3889 12.673 87.9991 12.673C86.6091 12.673 84.9757 12.673 83.0985 12.673H77.5209L78.8751 10.8197C78.8751 12.2453 78.8751 13.6234 78.8751 14.954C78.8751 16.2845 78.8751 17.7339 78.8751 19.3021V27.1072C78.8751 28.6516 78.8751 30.0832 78.8751 31.4018C78.8751 32.7206 78.8751 34.0926 78.8751 35.5182L77.6277 33.7006H83.3123C84.9161 33.7006 86.4251 33.7006 87.8387 33.7006C89.2525 33.7006 90.6127 33.7006 91.9195 33.7006V35.8926H76.4159ZM78.3405 24.06V21.9394H83.3659C85.0291 21.9394 86.4607 21.9394 87.6605 21.9394C88.8721 21.9394 90.0365 21.9394 91.1531 21.9394V24.06C89.9771 24.06 88.7831 24.06 87.5713 24.06C86.3715 24.06 84.9577 24.06 83.3301 24.06H78.3405ZM94.6913 35.8926C94.6913 34.467 94.6913 33.0948 94.6913 31.776C94.6913 30.4574 94.6913 29.02 94.6913 27.4636V18.9635C94.6913 17.3834 94.6913 15.9341 94.6913 14.6154C94.6913 13.2848 94.6913 11.9067 94.6913 10.4811H97.2039C97.2039 11.9067 97.2039 13.2848 97.2039 14.6154C97.2039 15.9341 97.2039 17.3834 97.2039 18.9635V27.0894C97.2039 28.6458 97.2039 30.0832 97.2039 31.4018C97.2039 32.7206 97.2039 34.0926 97.2039 35.5182L96.2059 33.6294H100.786C102.176 33.6294 103.405 33.6294 104.474 33.6294C105.544 33.6294 106.53 33.6294 107.432 33.6294C108.347 33.6294 109.28 33.6294 110.23 33.6294V35.8926H94.6913ZM121.682 36.3202C119.235 36.3202 117.251 35.9104 115.73 35.0906C114.221 34.259 113.116 33.0948 112.415 31.5978C111.715 30.101 111.364 28.3428 111.364 26.3232C111.364 25.848 111.364 25.2184 111.364 24.4342C111.364 23.6502 111.364 22.7888 111.364 21.8504C111.364 20.8998 111.364 19.9436 111.364 18.9813C111.364 17.3656 111.364 15.8984 111.364 14.5797C111.364 13.2611 111.364 11.8949 111.364 10.4811H115.534C115.534 11.8949 115.534 13.2611 115.534 14.5797C115.534 15.8984 115.534 17.3656 115.534 18.9813V26.0024C115.534 27.428 115.736 28.6458 116.14 29.6556C116.556 30.6652 117.209 31.4434 118.1 31.99C119.003 32.5246 120.191 32.7918 121.664 32.7918C123.161 32.7918 124.355 32.5246 125.246 31.99C126.137 31.4434 126.778 30.6652 127.17 29.6556C127.562 28.6458 127.758 27.422 127.758 25.9846V18.9813C127.758 17.3656 127.758 15.8984 127.758 14.5797C127.758 13.2611 127.758 11.8949 127.758 10.4811H131.928C131.928 11.8949 131.928 13.2611 131.928 14.5797C131.928 15.8984 131.928 17.3656 131.928 18.9813C131.928 19.9436 131.928 20.8998 131.928 21.8504C131.928 22.8008 131.928 23.674 131.928 24.4698C131.928 25.254 131.928 25.8776 131.928 26.341C131.928 28.3606 131.566 30.1188 130.841 31.6158C130.129 33.1008 129.018 34.259 127.509 35.0906C126 35.9104 124.058 36.3202 121.682 36.3202ZM142.442 36.3024C141.385 36.3024 140.309 36.2072 139.216 36.0172C138.135 35.839 137.126 35.6074 136.187 35.3222C135.26 35.0372 134.512 34.752 133.942 34.467L134.28 30.5644C135.1 31.0276 135.944 31.4256 136.811 31.7582C137.69 32.079 138.575 32.3344 139.466 32.5246C140.369 32.7028 141.266 32.7918 142.157 32.7918C143.131 32.7918 143.998 32.667 144.758 32.4176C145.519 32.1562 146.113 31.7582 146.54 31.2236C146.98 30.6772 147.2 29.9762 147.2 29.1208C147.2 28.3012 146.956 27.624 146.469 27.0894C145.994 26.5548 145.299 26.0914 144.384 25.6994C143.47 25.2956 142.377 24.9036 141.105 24.5234C139.514 24.0362 138.153 23.4958 137.025 22.9018C135.896 22.2958 135.035 21.5414 134.441 20.6386C133.859 19.7357 133.568 18.5714 133.568 17.1458C133.568 15.7677 133.882 14.5382 134.512 13.4571C135.153 12.376 136.104 11.5325 137.363 10.9266C138.634 10.3089 140.22 10 142.121 10C142.882 10 143.642 10.0535 144.402 10.1604C145.174 10.2673 145.911 10.4099 146.612 10.5881C147.325 10.7544 147.972 10.9504 148.554 11.1761C149.136 11.4018 149.641 11.6335 150.069 11.8711L149.695 15.7559C148.97 15.2688 148.198 14.8649 147.378 14.5441C146.57 14.2115 145.768 13.962 144.972 13.7957C144.188 13.6175 143.458 13.5284 142.78 13.5284C141.913 13.5284 141.117 13.6531 140.393 13.9026C139.668 14.1521 139.086 14.5322 138.646 15.0431C138.207 15.542 137.987 16.1836 137.987 16.9676C137.987 17.6804 138.177 18.2804 138.557 18.7675C138.937 19.2545 139.537 19.6882 140.357 20.0684C141.177 20.4486 142.234 20.8406 143.529 21.2444C145.56 21.886 147.164 22.5394 148.34 23.2046C149.516 23.858 150.348 24.6302 150.835 25.5212C151.334 26.4122 151.584 27.529 151.584 28.8714C151.584 30.3088 151.263 31.586 150.621 32.7028C149.992 33.8194 149 34.6986 147.645 35.34C146.303 35.9816 144.568 36.3024 142.442 36.3024Z" fill="#717680"/>
<path d="M24.7247 2C34.3447 2 42.4861 8.32072 45.2285 17.0352C44.5823 16.834 43.8971 16.7208 43.1855 16.7207H33.1075C32.6555 16.7207 32.2601 16.4123 32.1485 15.9707C31.9895 15.3443 31.8073 14.7032 31.6035 14.0664C30.9867 12.1544 29.2291 10.8711 27.2325 10.8711H22.0625C20.0658 10.8714 18.3097 12.1562 17.6934 14.0684C16.6991 17.1578 16.1953 20.3718 16.1953 23.6192C16.1954 26.8666 16.699 30.08 17.6934 33.17C18.3098 35.0816 20.0657 36.3668 22.0625 36.3672H27.2325C29.2295 36.3672 30.9867 35.0814 31.6035 33.168C31.8043 32.5398 31.9869 31.9004 32.1465 31.2676C32.2579 30.8254 32.6525 30.5156 33.1055 30.5156H43.1855C43.8629 30.5156 44.5159 30.4116 45.1347 30.2286C42.3083 38.7996 34.2425 44.9882 24.7247 44.9882C12.8537 44.9882 3.23047 35.365 3.23047 23.4942C3.23047 11.6233 12.8537 2 24.7247 2Z" fill="#35B48B"/>
</svg>
