<svg width="25" height="24" viewBox="0 0 25 24" fill="none" xmlns="http://www.w3.org/2000/svg">
<path d="M12.624 2.57129C16.7479 2.57129 20.2383 5.28096 21.4141 9.0166C21.137 8.93038 20.8431 8.88184 20.5381 8.88184H16.2178C16.0241 8.88177 15.8555 8.74977 15.8076 8.56055C15.7395 8.29197 15.6606 8.01718 15.5732 7.74414C15.3089 6.92462 14.556 6.37415 13.7002 6.37402H11.4834C10.6274 6.37408 9.8746 6.92533 9.61035 7.74512C9.18415 9.06948 8.96778 10.4468 8.96777 11.8389C8.96777 13.2312 9.18407 14.6089 9.61035 15.9336C9.87463 16.7532 10.6273 17.3037 11.4834 17.3037H13.7002C14.5562 17.3036 15.3088 16.7528 15.5732 15.9326C15.6593 15.6634 15.7373 15.3894 15.8057 15.1182C15.8534 14.9287 16.0227 14.796 16.2168 14.7959H20.5381C20.8285 14.7959 21.1087 14.7513 21.374 14.6729C20.1623 18.3471 16.7042 21 12.624 21C7.53544 20.9998 3.41038 16.8747 3.41016 11.7861C3.41016 6.69736 7.53531 2.57152 12.624 2.57129Z" fill="#35B48B"/>
</svg>
