<svg width="57" height="56" viewBox="0 0 57 56" fill="none" xmlns="http://www.w3.org/2000/svg">
<g clip-path="url(#clip0_19599_1445)">
<path d="M1.94367 1.57753C2.63607 1.15529 3.32851 0.733091 4.12515 0.220131C8.14695 0.0863313 12.0644 0.0120917 15.982 0.0060917C27.0761 -0.0108283 38.1704 -0.00294873 49.2644 0.00549127C50.2588 0.00625127 51.2532 0.0820114 52.418 0.128331C54.6892 1.24029 56.2436 2.75353 56.4244 5.62765C56.42 13.0826 56.4024 20.1989 56.4148 27.3151C56.4284 34.8945 56.4704 42.4737 56.5 50.0529C56.4772 50.4425 56.4544 50.8325 56.3712 51.4669C55.6828 52.7569 55.0544 53.8021 54.3036 54.882C53.5932 55.2528 53.0052 55.5889 52.2288 55.9229C36.5984 55.9465 21.1566 56.0113 5.71551 55.9237C4.47411 55.9165 3.07479 55.0641 2.03867 54.2401C0.455314 52.9805 0.384994 51.0457 0.386234 49.1217C0.395554 34.4789 0.361714 19.8361 0.378074 5.04945C0.924434 3.79621 1.43403 2.68685 1.94367 1.57753ZM13.5944 37.9573C14.0108 39.8209 14.291 41.7289 14.8754 43.5384C15.7566 46.2677 18.1165 47.4033 20.9767 47.2209C23.7849 47.0417 26.6204 47.2773 29.4436 47.3461C32.0956 47.4113 34.7476 47.5525 37.3988 47.5289C37.9828 47.5237 38.766 47.1109 39.1056 46.6349C40.1664 45.1485 41.2568 43.6249 41.9564 41.9565C42.584 40.4609 42.4092 38.6049 43.1204 37.1725C44.474 34.4473 45.2084 31.6625 44.3612 28.7659C43.3136 25.184 42.9512 21.241 39.8736 18.5611C40.2008 17.9891 40.614 17.4539 40.8356 16.8485C42.3184 12.8006 39.1788 9.39041 34.7016 8.84041C31.8228 8.48677 30.8588 9.32053 30.0008 11.7304C29.752 12.4289 29.0377 12.9617 28.5367 13.5704C28.0997 12.9989 27.467 12.4887 27.2646 11.8435C26.7825 10.3068 26.1722 8.86945 24.4731 8.51853C22.1451 8.03773 18.1226 9.15493 16.6948 11.8141C15.4991 14.041 15.8161 16.1233 16.7229 17.4746C15.7967 19.484 15.0951 21.0183 14.3812 22.5469C14.1873 22.962 13.9437 23.3537 13.744 23.7663C11.8342 27.7136 10.7101 31.7081 12.9508 35.9345C13.2276 36.4565 13.3548 37.0581 13.5944 37.9573Z" fill="#31AF89"/>
<path d="M52.042 55.5578C54.8604 54.4842 55.5224 53.7402 56.01 51.2822" stroke="#31AF89" stroke-width="2"/>
<path d="M13.5732 37.7904C13.3552 37.0584 13.228 36.4568 12.9512 35.9348C10.7105 31.7084 11.8346 27.7139 13.7444 23.7666C13.9441 23.354 14.1877 22.9623 14.3816 22.5472C15.0955 21.0186 15.7971 19.4843 16.7233 17.4749C15.8165 16.1236 15.4994 14.0413 16.6952 11.8144C18.123 9.15524 22.1455 8.03804 24.4735 8.51884C26.1725 8.86976 26.7829 10.3071 27.265 11.8438C27.4674 12.489 28.1 12.9992 28.5371 13.5707C29.038 12.962 29.7523 12.4292 30.0011 11.7307C30.8591 9.32084 31.8231 8.48708 34.7019 8.84076C39.1791 9.39072 42.3187 12.8009 40.8359 16.8488C40.6143 17.4542 40.2011 17.9894 39.8739 18.5614C42.9515 21.2413 43.3139 25.1843 44.3615 28.7662C45.2087 31.6628 44.4743 34.4476 43.1207 37.1728C42.4095 38.6052 42.5843 40.4612 41.9567 41.9568C41.2571 43.6252 40.1667 45.1488 39.1059 46.6352C38.7663 47.1112 37.9831 47.524 37.3991 47.5292C34.7479 47.5528 32.0959 47.4116 29.4439 47.3464C26.6207 47.2776 23.7853 47.042 20.977 47.2212C18.1168 47.4036 15.757 46.268 14.8757 43.5388C14.2914 41.7292 14.0111 39.8212 13.5732 37.7904ZM22.9726 41.206C22.7906 41.0204 22.6288 40.704 22.4229 40.6724C21.6389 40.5508 20.8406 40.5208 20.0476 40.4564C20.6289 39.9848 21.2102 39.5128 21.8793 38.97C21.6958 38.5604 21.4504 38.0124 21.1039 37.2392C21.6396 37.2392 22.0378 37.1124 22.2227 37.2576C26.0702 40.2776 29.9599 40.3916 33.9483 37.5396C34.1347 37.406 34.6299 37.4376 34.7791 37.59C34.9395 37.754 34.9623 38.192 34.8635 38.4372C34.7243 38.7832 34.4179 39.0616 34.1571 39.4032C34.9419 39.7804 35.6551 40.1228 36.3683 40.4656C36.3255 40.6852 36.2823 40.9044 36.2391 41.124C35.2515 41.0664 34.2643 41.0084 33.1639 40.944C33.1639 42.0964 33.1175 43.226 33.1883 44.348C33.2135 44.7516 33.4111 45.2916 33.7155 45.5056C35.3947 46.6864 38.0843 46.2036 39.1747 44.4384C39.8615 43.3264 40.3579 42.0684 40.7635 40.8184C41.2703 39.256 41.3475 37.5144 42.0491 36.0624C43.7483 32.546 43.5551 29.1566 42.0227 25.6989C41.5947 24.7328 41.3639 23.6745 40.8927 22.7334C40.3259 21.6004 39.5995 20.5472 38.9419 19.4594C38.6475 19.488 38.3527 19.5165 38.0583 19.545C36.7387 21.6669 35.4195 23.7888 33.9519 26.1488C38.2355 26.4698 36.2623 27.2799 34.7471 27.9915C34.8987 28.54 35.0407 29.054 35.1831 29.568C35.0531 29.6773 34.9231 29.7866 34.7935 29.8958C34.2807 29.5731 33.7559 29.2675 33.2571 28.9248C30.4323 26.9855 26.3519 26.9302 23.4436 28.7295C22.9034 29.0638 22.2029 29.1391 21.5764 29.334C21.661 28.7238 21.7456 28.1138 21.8291 27.511C21.2404 27.2372 20.6549 26.9648 20.0695 26.6924C20.1038 26.5142 20.1382 26.336 20.1726 26.1577C20.8933 26.0508 21.614 25.9439 22.768 25.7728C21.4483 23.4691 20.2214 21.3274 18.7625 18.7807C17.6285 19.9146 16.6351 20.5574 16.1505 21.4704C15.3224 23.0304 14.6644 24.7202 14.2112 26.4289C13.7411 28.2017 13.1991 30.108 13.4044 31.8728C13.7376 34.7364 14.5947 37.5484 15.3521 40.3496C15.6948 41.6168 16.2132 42.8708 16.8578 44.0152C17.8764 45.8236 19.1448 46.0792 21.5123 45.5336C23.3745 45.1048 22.8122 43.7084 22.9424 42.5592C22.9797 42.2292 22.9691 41.894 22.9726 41.206ZM28.6186 15.1715C26.5281 15.0762 26.2995 13.3659 25.6583 11.9154C25.3317 11.1764 24.6436 10.1754 23.998 10.0758C21.7812 9.73372 19.7733 10.4379 18.3191 12.2618C17.0542 13.8482 17.1768 15.6039 18.5212 17.1343C19.9988 18.8164 21.4367 20.5333 22.6734 21.9795C24.6856 21.5839 26.617 20.8662 28.5251 20.9239C30.4367 20.9816 32.3251 21.8134 34.1263 22.2807C35.5627 20.7544 37.0543 19.156 38.5611 17.5719C40.1455 15.9061 40.3447 14.5978 39.0947 12.7706C37.7795 10.8477 35.8399 10.1021 33.5627 10.2016C31.6167 10.2866 31.8875 12.1125 31.1783 13.2004C30.6547 14.0032 29.6947 14.5213 28.6186 15.1715ZM24.5278 23.1158C22.2262 24.1569 24.1678 25.4599 24.1439 26.3863C27.0389 26.3863 29.7691 26.3863 32.7579 26.3863C32.9187 25.9084 33.2251 24.9961 33.5523 24.0226C30.7911 21.9502 27.8774 21.8609 24.5278 23.1158ZM24.4455 44.0044C24.4455 44.5808 24.4455 45.1576 24.4455 45.8644C26.8583 45.8644 29.1412 45.8644 31.5111 45.8644C31.5111 45.22 31.5111 44.624 31.5111 44.126C29.12 43.9912 26.8891 43.8656 24.4455 44.0044ZM25.6818 40.6016C23.6107 39.9464 24.6472 41.4408 24.2784 42.6728C26.4724 42.6728 28.3617 42.7168 30.2479 42.658C31.6423 42.6148 32.0567 41.8524 31.6279 40.724C29.6775 40.724 27.8487 40.724 25.6818 40.6016Z" fill="#2C9E7E"/>
<path d="M22.9763 41.3831C22.9688 41.8935 22.9794 42.2287 22.9421 42.5587C22.812 43.7079 23.3742 45.1043 21.512 45.5331C19.1445 46.0787 17.8762 45.8231 16.8575 44.0147C16.2129 42.8703 15.6946 41.6163 15.3518 40.3491C14.5944 37.5479 13.7373 34.7359 13.4041 31.8723C13.1988 30.1076 13.7408 28.2012 14.211 26.4284C14.6641 24.7198 15.3222 23.03 16.1502 21.47C16.6348 20.557 17.6282 19.9141 18.7622 18.7803C20.2211 21.327 21.448 23.4687 22.7677 25.7723C21.6138 25.9435 20.893 26.0504 20.1723 26.1573C20.138 26.3355 20.1036 26.5138 20.0692 26.692C20.6546 26.9644 21.2401 27.2367 21.8288 27.5106C21.7453 28.1133 21.6607 28.7234 21.5762 29.3335C22.2026 29.1387 22.9031 29.0633 23.4433 28.729C26.3516 26.9297 30.432 26.9851 33.2568 28.9244C33.7556 29.267 34.2804 29.5726 34.7932 29.8954C34.9228 29.7861 35.0528 29.6768 35.1828 29.5676C35.0404 29.0536 34.8984 28.5396 34.7468 27.991C36.262 27.2794 38.2352 26.4694 33.9516 26.1484C35.4192 23.7883 36.7384 21.6664 38.058 19.5446C38.3524 19.5161 38.6472 19.4875 38.9416 19.459C39.5992 20.5468 40.3256 21.5999 40.8924 22.7329C41.3636 23.6741 41.5944 24.7323 42.0224 25.6984C43.5548 29.1562 43.748 32.5455 42.0488 36.0619C41.3472 37.5139 41.27 39.2555 40.7632 40.8179C40.3576 42.0679 39.8612 43.3259 39.1744 44.4379C38.084 46.2031 35.3944 46.6859 33.7152 45.5051C33.4108 45.2911 33.2132 44.7511 33.188 44.3475C33.1172 43.2255 33.1636 42.0959 33.1636 40.9435C34.264 41.0079 35.2512 41.0659 36.2388 41.1235C36.282 40.9039 36.3252 40.6847 36.368 40.4651C35.6548 40.1223 34.9416 39.7799 34.1568 39.4027C34.4176 39.0611 34.724 38.7827 34.8632 38.4367C34.962 38.1915 34.9392 37.7535 34.7788 37.5895C34.6296 37.4371 34.1344 37.4055 33.948 37.5391C29.9596 40.3911 26.07 40.2771 22.2224 37.2571C22.0375 37.1119 21.6394 37.2387 21.1036 37.2387C21.4501 38.0119 21.6955 38.5599 21.879 38.9695C21.21 39.5123 20.6286 39.9843 20.0474 40.4559C20.8403 40.5203 21.6386 40.5503 22.4226 40.6719C22.6285 40.7035 22.7903 41.0199 22.9763 41.3831Z" fill="#FCFDFD"/>
<path d="M28.7736 15.1688C29.6944 14.5213 30.6544 14.0032 31.178 13.2004C31.8872 12.1124 31.6164 10.2866 33.5624 10.2016C35.8396 10.102 37.7792 10.8476 39.0944 12.7706C40.3444 14.5978 40.1452 15.9061 38.5608 17.5719C37.054 19.156 35.5624 20.7544 34.126 22.2807C32.3248 21.8133 30.4364 20.9816 28.5248 20.9238C26.6167 20.8662 24.6852 21.5838 22.673 21.9794C21.4363 20.5333 19.9984 18.8163 18.5208 17.1343C17.1764 15.6039 17.0538 13.8482 18.3187 12.2618C19.773 10.4378 21.7808 9.73367 23.9976 10.0758C24.6432 10.1754 25.3313 11.1764 25.658 11.9154C26.2992 13.3658 26.5278 15.0762 28.7736 15.1688Z" fill="#FBFDFD"/>
<path d="M24.6703 23.0248C27.8773 21.8609 30.791 21.9502 33.5522 24.0226C33.225 24.9961 32.9186 25.9084 32.7578 26.3863C29.769 26.3863 27.0388 26.3863 24.1438 26.3863C24.1677 25.4599 22.2262 24.1569 24.6703 23.0248Z" fill="#FAFCFC"/>
<path d="M24.5517 43.8713C26.889 43.8649 29.1198 43.9905 31.511 44.1253C31.511 44.6233 31.511 45.2193 31.511 45.8637C29.141 45.8637 26.8581 45.8637 24.4453 45.8637C24.4453 45.1569 24.4453 44.5801 24.5517 43.8713Z" fill="#F6FAF9"/>
<path d="M25.8508 40.663C27.8486 40.7242 29.6774 40.7242 31.6278 40.7242C32.0566 41.8526 31.6422 42.615 30.2478 42.6582C28.3616 42.717 26.4724 42.673 24.2783 42.673C24.6472 41.441 23.6106 39.9466 25.8508 40.663Z" fill="#F0F7F5"/>
<path d="M4.21035 0.400391C1.61035 1.60039 1.01035 2.40039 0.610352 5.00039" stroke="#31AF89"/>
</g>
<defs>
<clipPath id="clip0_19599_1445">
<rect x="0.410156" width="56" height="56" rx="6" fill="white"/>
</clipPath>
</defs>
</svg>
