<svg width="57" height="56" viewBox="0 0 57 56" fill="none" xmlns="http://www.w3.org/2000/svg">
<g clip-path="url(#clip0_19599_1746)">
<path d="M1.08558 3.29309C1.81701 2.44705 2.43313 1.73972 3.11333 0.922433C4.20935 0.39485 5.22339 -0.0104795 6.38523 -0.00878376C21.1637 0.0126698 35.9424 0.00781917 50.7209 0.0148389C51.1137 0.0149966 51.5065 0.0730864 52.0696 0.0915822C54.4236 0.466861 55.4908 2.04527 56.3615 4.04637C56.4763 4.42086 56.5145 4.64454 56.5465 5.05066C56.6608 19.8192 56.5922 34.409 56.5918 48.9982C56.5914 52.6619 54.7774 54.8616 51.0261 55.7521C36.2051 55.786 21.5757 55.7639 6.7527 55.7742C5.91408 55.773 5.26953 55.7651 4.44104 55.6342C1.91402 54.3312 0.299251 52.482 0.283634 49.7408C0.202158 35.4474 0.256226 21.1534 0.246209 6.85969C0.245893 6.39908 0.303944 5.94413 0.398828 5.3079C0.385144 4.48967 0.601178 3.93539 1.08558 3.29309Z" fill="#31AF89"/>
<path d="M31.6274 41.282C31.2292 41.3581 30.9522 41.39 30.537 41.3979C29.9361 41.2824 29.4732 41.1972 28.8842 41.3309C28.486 41.3672 28.2049 41.3833 27.7839 41.3802C27.2017 41.2922 26.7563 41.2461 26.1831 41.1522C25.7769 41.0552 25.4996 40.9992 25.0868 40.901C24.4771 40.8127 23.9997 40.8458 23.4108 40.7701C23.1277 40.6885 22.959 40.6419 22.6607 40.5694C22.0807 40.388 21.6467 40.162 21.0251 40.2152C20.7369 40.2058 20.57 40.2002 20.2783 40.2034C20.0361 40.1403 19.9347 40.0508 19.7986 39.8564C19.6683 39.6627 19.5732 39.5724 19.36 39.4762C18.9531 39.445 18.6545 39.5361 18.2683 39.4178C18.0834 39.2443 17.9789 39.1631 17.7713 39.0806C17.2379 38.5782 16.6635 38.426 15.9134 38.3491C15.7914 38.2943 15.6585 38.2107 15.5799 38.213C14.8787 37.8084 14.6574 36.8343 13.5593 36.8714C13.4375 36.8162 13.3386 36.6742 13.2546 36.6545C12.5284 36.3315 12.4351 35.4182 11.5557 35.1788C11.3886 34.9757 11.3193 34.8641 11.1512 34.7276C9.92843 33.1281 10.267 31.7996 11.4147 30.2928C14.8737 25.7511 18.0756 21.0188 21.3475 16.3405C22.4638 14.7443 23.6087 14.0331 25.6225 14.6043C27.5882 15.1618 29.6709 15.0855 31.6592 14.5223C33.1481 14.1005 34.1775 14.5403 35.0462 15.7614C38.4316 20.5206 41.7739 25.3109 45.2053 30.0376C45.7041 30.7248 46.1892 31.4476 46.1435 32.5117C46.2007 32.7311 46.2097 32.8133 46.2271 33.0194C46.1289 33.7111 45.9514 34.2678 45.9404 34.9769C45.6896 35.2825 45.4671 35.4667 45.0984 35.6422C44.4126 35.6422 44.1811 35.9588 44.1066 36.5867C43.9437 37.1167 43.5367 37.0966 43.1151 37.2835C42.3804 37.2851 41.7857 37.2784 41.5337 38.1582C41.2679 38.3081 41.0798 38.353 40.756 38.45C40.2252 38.62 39.7859 38.4055 39.375 38.7663C39.3209 39.0156 39.2756 39.1544 39.1257 39.3598C38.8635 39.5034 38.6848 39.5736 38.3792 39.7136C37.622 39.641 37.0734 39.6746 36.767 40.5224C36.4081 40.7113 36.142 40.8076 35.7716 40.9306C34.9863 40.5043 34.4243 40.6644 33.8309 41.3266C33.7091 41.3628 33.5357 41.3076 33.5357 41.3076C33.5357 41.3076 33.3553 41.3309 33.2648 41.3384C32.708 41.1925 32.2542 40.877 31.6274 41.282Z" fill="#FAFCFC"/>
<path d="M46.2775 32.5534C45.5948 31.178 44.5379 30.0036 43.6384 28.7323C40.5804 24.4092 37.4744 20.1201 34.4235 15.7923C33.8033 14.9126 33.3204 14.4482 32.0695 14.902C29.6167 15.7917 27.035 15.7084 24.5627 14.8956C23.6373 14.5914 23.1713 14.6909 22.6241 15.4644C18.6958 21.0178 14.7434 26.5542 10.7567 32.0657C10.4099 32.5452 10.309 32.8183 10.8049 33.13C11.3881 33.4966 11.3093 33.9443 11.0473 34.5735C10.0994 34.6773 9.87892 34.4517 9.666 33.2663C9.11113 30.1773 11.473 28.7089 12.7533 26.7285C15.4727 22.5222 18.5013 18.5159 21.3998 14.4253C22.4665 12.9199 23.7524 12.4211 25.3882 13.5488C25.8624 13.8757 26.3907 13.7723 27.0689 13.8063C27.791 14.1929 28.4078 13.9512 29.1012 13.8882C30.0431 13.7482 30.9443 14.0103 31.706 13.5117C33.4916 12.3429 34.4942 13.0585 35.5972 14.6688C39.2132 19.9468 42.962 25.1349 46.7337 30.3034C47.47 31.312 47.4606 31.9042 46.2775 32.5534Z" fill="#299C7D"/>
<path d="M13.4585 36.9479C14.7675 36.007 15.3884 36.4057 15.4236 38.0754C14.5411 38.3467 13.8515 37.9961 13.4585 36.9479Z" fill="#2E9D7E"/>
<path d="M46.0406 35.0717C45.4077 34.4703 45.0713 33.8512 46.1246 33.2246C47.4777 33.8203 47.0183 34.4387 46.0406 35.0717Z" fill="#319F81"/>
<path d="M15.8091 38.4195C16.5386 37.9037 17.4764 36.8014 17.6294 38.9278C16.8653 39.5509 16.2663 39.3226 15.8091 38.4195Z" fill="#349F81"/>
<path d="M18.1914 39.4644C18.6491 39.2341 18.8861 38.3346 19.64 39.0164C19.7936 39.1288 19.8506 39.1742 19.9444 39.3225C20.012 39.6021 20.0428 39.7787 20.1134 40.0836C19.3006 40.6527 18.5937 40.6239 18.1914 39.4644Z" fill="#259979"/>
<path d="M20.9248 40.3444C21.4872 39.3478 22.0284 39.3794 22.5292 40.4154C21.9414 42.0252 21.451 41.0759 20.9248 40.3444Z" fill="#2E9D7E"/>
<path d="M28.7954 41.4935C29.1161 40.1819 29.7077 40.4224 30.3844 41.225C30.0464 42.5019 29.5054 42.4913 28.7954 41.4935Z" fill="#239877"/>
<path d="M36.7956 40.6083C36.8737 40.1197 36.1012 39.4694 36.8635 39.0959C37.3312 38.8668 37.8679 38.8124 38.1487 39.6599C37.9756 40.3315 37.4337 40.4462 36.7956 40.6083Z" fill="#37A184"/>
<path d="M33.8804 41.3711C34.2982 41.0059 33.5521 39.893 34.6458 39.7794C35.3698 39.7041 35.498 40.113 35.6272 40.8004C35.146 41.1632 34.6521 41.4744 33.8804 41.3711Z" fill="#299C7D"/>
<path d="M23.3003 40.88C23.813 40.3677 24.3139 39.8278 24.9434 40.7207C24.5118 42.0035 23.9986 42.4133 23.3003 40.88Z" fill="#299C7D"/>
<path d="M31.5904 41.4426C31.5129 40.9067 31.2989 40.4015 31.9906 40.2781C32.6552 40.1602 32.9202 40.5419 33.1336 41.2111C32.7464 41.9269 32.2334 41.9029 31.5904 41.4426Z" fill="#349F81"/>
<path d="M26.0601 41.2535C26.56 40.518 27.0735 40.2474 27.6287 41.2176C27.5898 41.8971 27.3293 42.2003 26.755 42.1684C26.2612 42.1408 26.0851 41.8407 26.0601 41.2535Z" fill="#259979"/>
<path d="M11.4604 35.236C12.7662 34.5218 13.2445 35.0148 13.1174 36.4909C12.3378 36.5777 11.5372 36.4775 11.4604 35.236Z" fill="#239877"/>
<path d="M44.2161 36.6934C43.6707 36.4102 43.1391 36.0963 43.5682 35.5032C43.8698 35.0863 44.3257 34.7113 44.8794 35.5063C44.9654 36.1034 44.9433 36.5518 44.2161 36.6934Z" fill="#349F81"/>
<path d="M41.5782 38.2472C41.637 37.8063 40.8187 37.3398 41.4875 36.8756C42.0097 36.5128 42.4403 36.4919 42.8895 37.199C42.7944 37.9503 42.2147 38.0453 41.5782 38.2472Z" fill="#319F81"/>
<path d="M39.1182 38.7398C39.3165 37.7894 39.731 37.4617 40.5316 38.3995C40.53 39.0285 40.2177 39.3314 39.5729 39.428C39.2601 39.2777 39.2724 39.0317 39.1182 38.7398Z" fill="#2E9D7E"/>
<path d="M39.0405 38.7861C39.1715 38.8382 39.3032 39.0196 39.444 39.3193C39.3844 39.4368 39.3162 39.4368 39.1446 39.4345C39.0417 39.2606 39.0413 39.0882 39.0405 38.7861Z" fill="#37A184"/>
<path d="M27.2987 31.0868C29.0148 33.4819 28.811 35.785 26.8805 37.2067C25.1702 38.4663 22.5985 38.1287 21.2707 36.4704C20.1442 35.0637 20.2039 32.8062 21.4042 31.4203C22.9031 29.6895 24.8564 29.5419 27.2987 31.0868Z" fill="#319F81"/>
<path d="M26.5087 20.7548C26.7323 21.4938 26.738 22.0551 25.8628 22.081C25.3338 22.0966 25.2247 21.7804 25.2208 21.3346C25.2125 20.3952 25.7825 20.4864 26.5087 20.7548Z" fill="#40A287"/>
<path d="M30.4031 35.1992C29.7422 35.478 29.1428 35.6488 29.0266 34.778C28.9586 34.2686 29.1917 33.9198 29.7697 33.9189C30.6482 33.9176 30.6085 34.4803 30.4031 35.1992Z" fill="#40A589"/>
<path d="M28.9603 27.7322C29.5236 27.219 30.0631 26.9131 30.3709 27.7754C30.4942 28.1207 30.5463 28.6102 30.0317 28.7366C29.357 28.9024 28.855 28.7278 28.9603 27.7322Z" fill="#4DA68D"/>
<path d="M26.6289 27.4488C27.321 27.2744 27.9563 27.104 28.0095 28.0176C28.0447 28.6213 27.7002 28.7902 27.1652 28.7771C26.2141 28.7537 26.392 28.1451 26.6289 27.4488Z" fill="#40A287"/>
<path d="M24.0101 27.519C24.5661 26.6566 25.0737 27.1773 25.4223 27.5316C25.548 27.6593 25.3988 28.4018 24.9781 28.4832C24.4247 28.5902 23.6967 28.6393 24.0101 27.519Z" fill="#3AA286"/>
<path d="M28.7427 20.6721C29.2631 21.2025 29.5347 21.7552 28.7637 22.0706C28.4191 22.2115 27.8131 22.3496 27.6588 21.7097C27.4814 20.9742 27.8393 20.6194 28.7427 20.6721Z" fill="#37A184"/>
<path d="M32.7229 35.1084C31.8891 35.2357 31.542 34.8997 31.6624 34.2642C31.7573 33.7634 32.3104 33.4791 32.7033 33.6604C33.3469 33.9573 33.2801 34.5432 32.7229 35.1084Z" fill="#40A589"/>
<path d="M18.2263 32.5073C18.8277 31.633 19.3166 32.0756 19.6263 32.5427C19.8381 32.8619 19.5956 33.3468 19.2091 33.4671C18.5561 33.6702 18.0484 33.523 18.2263 32.5073Z" fill="#3AA286"/>
<path d="M39.697 31.3774C40.733 31.189 40.7823 31.7609 40.5374 32.3594C40.4057 32.6814 39.9396 33.0266 39.5807 32.7662C39.098 32.4158 38.6689 31.8906 39.697 31.3774Z" fill="#3AA286"/>
<path d="M19.7397 25.752C20.5682 26.0572 20.7923 26.5121 20.2941 27.1269C19.9879 27.5048 19.4634 27.3797 19.223 27.1475C18.589 26.535 19.2801 26.1543 19.7397 25.752Z" fill="#349F81"/>
<path d="M22.1672 26.5088C23.1227 26.7815 23.0927 27.3314 22.6805 27.8524C22.4274 28.1723 21.873 28.1134 21.6309 27.8582C21.0765 27.2737 21.5548 26.8558 22.1672 26.5088Z" fill="#45A58B"/>
<path d="M35.4766 27.2806C35.2053 28.2192 34.6433 28.1346 34.137 27.7672C33.8245 27.5404 33.739 27.0474 34.1084 26.7759C34.6445 26.3818 35.1841 26.358 35.4766 27.2806Z" fill="#45A58B"/>
<path d="M37.1637 33.8698C36.5367 33.258 36.5611 32.7732 37.2536 32.4252C37.6752 32.2132 38.0238 32.3646 38.1823 32.7891C38.4856 33.6022 37.8972 33.7737 37.1637 33.8698Z" fill="#40A287"/>
<path d="M17.1824 24.9127C18.1031 24.8218 18.367 25.2012 18.1052 25.9196C17.9559 26.3291 17.6554 26.4904 17.206 26.3094C16.3301 25.9566 16.7316 25.4673 17.1824 24.9127Z" fill="#3AA286"/>
<path d="M33.2303 20.269C34.2552 20.1225 34.2995 20.7369 34.1634 21.3211C34.0589 21.7698 33.521 21.8163 33.197 21.6782C32.4153 21.3448 32.6376 20.832 33.2303 20.269Z" fill="#3AA286"/>
<path d="M41.9931 31.4985C41.4032 31.0282 41.0668 30.5872 41.8192 30.0999C42.2033 29.8513 42.5472 29.8473 42.8008 30.2513C43.2997 31.046 42.5721 31.2162 41.9931 31.4985Z" fill="#37A184"/>
<path d="M23.9515 21.549C23.3698 21.6007 22.5234 22.0773 22.7027 20.9782C22.7568 20.6458 22.7672 20.103 23.3177 20.1405C24.1488 20.1972 24.178 20.7816 23.9515 21.549Z" fill="#349F81"/>
<path d="M31.9779 27.2124C32.8565 27.0536 33.0693 27.515 32.983 28.0723C32.9112 28.5362 32.3721 28.5809 32.0481 28.4847C31.2525 28.2483 31.3667 27.7463 31.9779 27.2124Z" fill="#37A184"/>
<path d="M17.0252 31.105C17.5439 31.8928 17.1453 32.3229 16.5077 32.4545C16.2113 32.5156 15.6913 32.249 15.7548 31.7655C15.837 31.1401 16.0969 30.6174 17.0252 31.105Z" fill="#349F81"/>
<path d="M38.8813 26.1269C38.4628 25.3955 38.6647 25.0019 39.3289 24.8708C39.8179 24.7743 40.1444 25.1511 40.1582 25.5098C40.189 26.3057 39.6585 26.4397 38.8813 26.1269Z" fill="#3AA286"/>
<path d="M21.4861 20.9369C20.8219 21.0872 20.1304 21.2616 20.231 20.334C20.2635 20.0342 20.414 19.5265 20.9463 19.5928C21.7461 19.6924 21.8908 20.1571 21.4861 20.9369Z" fill="#37A184"/>
<path d="M30.3311 21.323C30.5308 20.4885 30.984 20.3651 31.47 20.8015C31.7548 21.0572 31.8175 21.5888 31.488 21.8537C31.026 22.2253 30.5182 22.2629 30.3311 21.323Z" fill="#349F81"/>
<path d="M35.5706 21.0129C35.0457 20.481 34.8764 20.0316 35.571 19.7306C36.056 19.5204 36.4587 19.6478 36.6168 20.1936C36.853 21.0077 36.1593 20.9259 35.5706 21.0129Z" fill="#40A589"/>
<path d="M14.7254 30.8431C13.8857 31.2935 13.4556 30.9972 13.4821 30.2511C13.4932 29.941 13.831 29.4867 14.3048 29.6094C14.8662 29.7549 15.2866 30.0623 14.7254 30.8431Z" fill="#2E9D7E"/>
<path d="M34.3361 33.6687C34.9045 33.102 35.3559 32.9014 35.7001 33.7231C35.8993 34.1985 35.6855 34.4511 35.3037 34.5982C34.5617 34.8841 34.241 34.5608 34.3361 33.6687Z" fill="#319F81"/>
<path d="M37.8607 26.7473C37.3385 27.4258 36.8377 27.4069 36.4283 26.8165C36.2371 26.5409 36.2651 26.2262 36.6295 26.0281C37.294 25.667 37.7002 25.8517 37.8607 26.7473Z" fill="#299C7D"/>
<path d="M20.0181 39.3344C19.8881 39.3833 19.8208 39.3155 19.7578 39.153C19.8911 39.0406 19.9972 39.0942 20.0181 39.3344Z" fill="#31AF89"/>
<path d="M24.7901 36.5785C22.5624 36.106 21.7079 35.102 22.0429 33.4456C22.3393 31.9801 23.3263 31.4084 24.7617 31.5556C26.0384 31.6866 26.7715 32.4359 26.9146 33.6861C27.0862 35.1844 26.4724 36.2066 24.7901 36.5785Z" fill="#F9FCFB"/>
</g>
<defs>
<clipPath id="clip0_19599_1746">
<rect x="0.410156" width="56" height="56" rx="6" fill="white"/>
</clipPath>
</defs>
</svg>
