<svg width="57" height="56" viewBox="0 0 57 56" fill="none" xmlns="http://www.w3.org/2000/svg">
<g clip-path="url(#clip0_19599_2489)">
<path d="M53.4165 0.523254C54.6489 1.4656 55.6966 2.38583 56.2518 3.87471C56.3578 19.3798 56.3952 34.7792 56.4027 50.1784C56.4039 52.3557 55.2307 53.9014 53.3358 55.1112C52.5665 55.8233 51.771 56.1263 50.6701 56.1506C35.7952 56.172 21.1104 56.1795 6.23173 56.149C2.38913 55.4662 0.726739 53.6123 0.396967 50.0704C0.06499 46.5051 0.238777 42.9377 0.226922 39.3724C0.192837 29.1246 0.217703 18.8764 0.210606 8.6284C0.209871 7.56686 0.225929 6.51374 0.652033 5.32519C1.09449 2.8942 2.29771 1.27417 4.49573 0.232649C6.18581 0.0957867 7.76803 0.00809317 9.35037 0.00682225C22.8192 -0.00417917 36.2881 0.00165928 49.757 -0.0014386C50.9477 -0.00167689 52.1392 -0.0369846 53.4165 0.523254Z" fill="#31AF89"/>
<path d="M21.5495 39.4373C21.3335 37.0599 22.132 34.9208 22.7783 32.8662C23.7061 29.9169 22.8526 27.4141 21.8419 24.8357C21.1939 23.1825 20.4615 21.5656 20.2721 19.6138C20.6932 17.9697 20.3859 16.4577 20.3581 14.8275C19.9949 14.5068 19.7465 14.2681 19.4502 14.1403C18.3666 13.673 17.3386 12.4414 16.07 13.5172C15.3887 14.0949 16.054 17.5091 16.8315 18.2279C18.8143 20.0612 19.3507 22.2718 18.1675 23.7343C16.661 25.5962 13.6493 25.8898 11.5341 24.3809C8.75367 22.3975 8.51994 19.9961 10.9611 17.5866C11.4667 17.0875 11.5269 16.5981 11.5281 16.0038C11.5298 15.2104 11.4605 14.4087 11.5483 13.6247C12.0834 8.84788 16.2957 8.06237 20.2705 10.0127C21.6254 10.6775 22.5112 10.9108 23.5052 9.68153C24.229 8.7864 25.4035 8.85022 26.5003 8.40234C27.7164 8.7551 28.8335 8.46128 30.0565 8.43733C31.3667 8.54818 32.6582 8.82779 33.4444 9.64157C34.8131 11.0583 35.9391 10.4743 37.2908 9.77661C39.8731 8.44417 42.9051 9.00595 44.4997 10.9257C45.6566 12.318 45.2225 13.9388 45.2773 15.4859C45.3107 16.4193 45.3568 17.1741 46.2158 17.8907C48.3887 19.7039 48.5583 20.9085 47.2878 23.0025C46.1825 24.8242 43.1386 25.8905 41.2052 25.1555C39.6186 24.5522 38.2658 23.5457 38.2694 21.8016C38.2726 20.053 39.0049 18.4399 41.1385 17.8896C41.7855 16.5362 41.4149 15.1455 41.4118 13.646C39.3191 12.8516 36.8463 14.2557 36.9878 16.1502C37.2527 19.7014 36.2993 22.9517 34.7933 26.0543C33.5175 28.6828 33.7689 31.2286 34.5221 33.9061C35.1956 36.3002 35.9266 38.7034 35.7676 41.2603C35.5696 44.4452 33.1014 45.7558 30.7786 46.852C29.0574 47.6642 27.1148 47.7051 25.2941 46.0982C23.9498 44.9118 22.0475 44.3626 21.4788 42.2266C21.8585 41.2627 21.5944 40.3969 21.5495 39.4373Z" fill="#299C7C"/>
<path d="M20.2656 14.877C21.0339 16.1681 20.6388 17.704 20.3896 19.3392C20.2713 17.9882 20.2688 16.5241 20.2656 14.877Z" fill="#1E8F6F"/>
<path d="M41.3207 13.6934C42.0411 14.8644 41.7269 16.2685 41.4052 17.773C41.2921 16.5443 41.3052 15.2094 41.3207 13.6934Z" fill="#198064"/>
<path d="M30.0045 8.34791C29.1136 9.05784 27.9762 8.73574 26.7432 8.46233C27.7002 8.34771 28.764 8.34644 30.0045 8.34791Z" fill="#1C8869"/>
<path d="M21.4604 39.4961C22.1445 40.1232 21.8791 41.0077 21.5788 41.9851C21.4653 41.2798 21.4622 40.4743 21.4604 39.4961Z" fill="#1B886A"/>
<path d="M27.2112 45.7863C26.7126 43.6528 25.8888 41.541 27.6501 39.6688C28.0403 39.2542 27.9294 38.6707 27.9328 38.1489C27.9513 35.3727 28.2429 32.5618 27.9084 29.8279C27.3745 25.4641 26.2806 21.1679 26.654 16.7143C26.7102 16.0446 26.2019 15.5191 25.6363 15.3866C22.768 14.7148 20.4466 12.8354 17.7166 11.8837C15.6094 11.149 14.474 12.0008 14.3041 14.2102C14.2303 15.1682 14.7894 16.9923 13.8489 16.9097C12.5159 16.7926 13.266 15.0368 13.28 14.0507C13.3204 11.2029 15.341 9.90362 18.1583 10.6605C19.2053 10.9417 20.092 11.5032 20.9915 12.0415C26.1789 15.1453 31.3405 15.0942 36.5102 12.0035C37.2435 11.565 37.9894 11.1023 38.7901 10.83C41.9865 9.74309 44.0275 11.1819 43.9651 14.5422C43.9496 15.3859 44.6407 16.9389 43.3277 16.9653C42.4233 16.9835 42.952 15.4109 42.9122 14.5705C42.7986 12.1692 41.6385 11.1899 39.3556 11.9378C36.6135 12.836 34.3067 14.7579 31.4278 15.3966C30.8492 15.5249 30.5003 16.128 30.5444 16.8037C30.9929 23.6743 28.4375 30.357 29.2688 37.2549C29.3983 38.3296 29.4135 39.2625 30.1019 40.3349C30.9954 41.7273 30.523 43.646 30.2462 45.496C29.284 46.1013 28.3174 45.7764 27.2112 45.7863Z" fill="#EDF6F3"/>
<path d="M26.6457 38.7671C24.7743 39.476 25.585 40.9698 25.3308 42.0894C25.1777 42.7637 25.8947 43.9397 24.7527 44.0216C23.7803 44.0911 23.1775 43.0509 23.0479 42.1223C22.8292 40.5559 22.8437 38.9613 23.2282 37.404C23.684 35.558 24.2306 33.7319 24.6258 31.8735C25.4036 28.2149 23.5938 25.0675 22.4578 21.8117C21.8598 20.0979 21.6234 18.3736 21.6014 16.5901C21.5908 15.7264 21.8348 15.525 22.7861 15.7715C24.6515 16.2547 25.6782 16.9491 25.4703 19.2162C25.1891 22.2814 25.1428 25.4212 26.6343 28.4685C26.9664 31.9517 26.773 35.2927 26.6457 38.7671Z" fill="#F6FAF9"/>
<path d="M34.348 23.1823C31.3199 28.0959 32.6295 32.9297 33.9319 37.8315C34.4438 39.7585 34.8271 41.8861 33.1351 43.6086C32.856 43.8926 32.557 44.165 32.1046 44.0244C31.7593 43.9168 31.8614 43.6042 31.8252 43.3639C31.1523 38.8986 30.0142 34.4774 30.5675 29.8959C30.6306 29.3733 30.4531 28.7668 30.6581 28.3249C32.1694 25.0662 31.7891 21.6054 31.8469 18.1882C31.8675 16.9691 33.7637 15.5086 34.9715 15.7762C35.7138 15.9406 35.5262 16.5748 35.5297 17.0531C35.5448 19.1176 35.1607 21.1146 34.348 23.1823Z" fill="#F7FAF9"/>
<path d="M10.7451 20.997C11.0523 19.0257 12.3088 18.5664 13.9185 18.6648C15.5828 18.7666 16.8398 19.5097 17.3122 21.178C17.6646 22.4227 16.6052 23.5976 15.0477 23.8283C13.2128 24.1 11.6069 23.1001 10.7451 20.997Z" fill="#F9FCFB"/>
<path d="M46.3411 20.077C46.326 22.8145 43.6718 24.6275 41.3158 23.6929C39.813 23.0967 39.3546 21.5846 40.2939 20.3199C41.7027 18.4234 44.5754 18.2378 46.3411 20.077Z" fill="#FAFCFB"/>
<path d="M25.0924 10.6375C28.2391 9.42737 31.0743 9.57019 33.9257 11.7143C30.3236 13.2707 26.9985 13.3034 23.6084 11.8795C23.8879 11.1855 24.4658 10.9972 25.0924 10.6375Z" fill="#F6FAF9"/>
<path d="M26.65 38.8107C26.5491 35.5957 26.5905 32.2889 26.6557 28.7988C27.3205 31.9766 27.102 35.3475 26.65 38.8107Z" fill="#1A8567"/>
<path d="M27.1538 45.8273C27.9772 45.707 28.9111 45.6911 30.0202 45.6621C29.2835 46.4191 28.2616 46.0474 27.1538 45.8273Z" fill="#188264"/>
</g>
<defs>
<clipPath id="clip0_19599_2489">
<rect x="0.410156" width="56" height="56" rx="6" fill="white"/>
</clipPath>
</defs>
</svg>
