<svg width="57" height="56" viewBox="0 0 57 56" fill="none" xmlns="http://www.w3.org/2000/svg">
<g clip-path="url(#clip0_19599_2515)">
<path d="M52.4158 0.128891C54.4586 1.06957 55.8282 2.43441 56.401 4.65965C56.4378 19.7695 56.4326 34.744 56.411 49.7184C56.4058 53.2696 54.9742 55.066 51.1742 56.0064C35.6307 56.026 20.419 56.0332 5.20722 56.0408C2.22462 55.5184 0.417164 53.172 0.41348 49.7216C0.400976 38 0.408836 26.2784 0.407764 14.5569C0.407492 11.5599 0.402972 8.56297 0.374512 5.37961C0.699168 2.91161 1.90906 1.27681 4.1259 0.22761C6.82234 0.0909304 9.41062 0.00861076 11.999 0.00573076C24.4866 -0.00806924 36.9742 -0.00306934 49.4618 0.00481066C50.3898 0.00537066 51.3174 0.0809306 52.4158 0.128891ZM21.7545 47.35C23.1345 47.434 24.5138 47.5732 25.8946 47.59C28.5199 47.6212 28.8683 47.3484 28.776 44.7864C28.7187 43.1944 29.2289 42.6696 30.8088 42.7784C34.6213 43.0408 37.733 41.4544 39.9874 38.5112C41.2562 36.8548 41.851 34.6972 43.0182 32.9444C44.0902 31.3344 43.3178 30.5874 42.1534 29.6814C41.155 28.9044 40.2474 27.999 39.363 27.0889C37.1139 24.7745 34.9003 22.4256 32.3937 19.9136C31.9973 19.781 31.601 19.6485 31.1976 19.2331C30.9827 18.8479 30.8502 18.3714 30.5401 18.092C27.989 15.7941 25.1107 13.7886 24.3137 10.083C24.2031 9.56905 23.3278 8.92797 22.7455 8.85873C20.5115 8.59305 18.2541 8.48825 16.0025 8.41585C13.9134 8.34869 13.2434 9.02741 13.2131 11.1131C13.0708 20.8943 12.9463 30.6756 12.801 40.4568C12.7853 41.5156 12.5513 42.584 12.6435 43.6284C12.7438 44.7648 12.945 46.77 13.3827 46.8492C15.4319 47.2204 17.5777 47.0588 19.9922 47.156C20.5042 47.1304 21.0161 47.1052 21.7545 47.35Z" fill="#31AF89"/>
<path d="M31.2048 19.5166C31.6012 19.6492 31.9975 19.7817 32.4694 20.1382C32.8635 20.9981 33.0138 21.8795 33.5272 22.2313C37.8112 25.1672 38.7308 29.9814 40.4204 34.3603C40.5356 34.6591 40.3032 35.1363 40.1436 35.4907C38.75 38.5867 36.5172 40.9247 33.0816 41.2371C30.5066 41.4715 27.8575 40.8843 25.2405 40.6747C24.8246 40.6415 24.4038 40.6699 23.9854 40.6699C23.9482 40.8939 23.9111 41.1179 23.874 41.3419C25.1027 41.7643 26.3314 42.1863 27.619 42.6287C27.5448 43.9159 27.4778 45.0795 27.4045 46.3523C25.7469 46.3523 24.2914 46.2955 22.845 46.3855C22.3934 46.4139 21.9665 46.8375 21.5283 47.0803C21.0163 47.1059 20.5044 47.1311 19.825 46.9559C17.8278 46.4755 15.998 46.1963 14.0776 45.9031C14.3318 33.9095 14.584 22.0053 14.8359 10.1133C17.8581 10.1133 20.4304 10.1133 23.0294 10.1133C23.725 14.6542 27.1462 16.9822 30.2873 19.5154C30.4728 19.665 30.8936 19.523 31.2048 19.5166Z" fill="#FDFEFE"/>
<path d="M31.2012 19.3752C30.8934 19.523 30.4727 19.6651 30.2872 19.5155C27.1461 16.9822 23.7248 14.6542 23.0293 10.1133C20.4303 10.1133 17.858 10.1133 14.8358 10.1133C14.5838 22.0054 14.3316 33.9095 14.0775 45.9031C15.9979 46.1963 17.8277 46.4755 19.6733 46.9219C17.5778 47.0595 15.432 47.2211 13.3828 46.8499C12.9451 46.7707 12.7439 44.7655 12.6435 43.6291C12.5513 42.5851 12.7854 41.5163 12.8011 40.4575C12.9464 30.6764 13.0708 20.895 13.2132 11.1138C13.2435 9.02815 13.9134 8.34943 16.0025 8.41659C18.2542 8.48899 20.5115 8.59379 22.7456 8.85947C23.3279 8.92871 24.2032 9.56979 24.3138 10.0837C25.1107 13.7893 27.9891 15.7948 30.5401 18.0927C30.8502 18.3721 30.9828 18.8486 31.2012 19.3752Z" fill="#259C7B"/>
<path d="M21.6411 47.2154C21.9662 46.8374 22.3931 46.4138 22.8446 46.3854C24.291 46.2954 25.7466 46.3522 27.4041 46.3522C27.4774 45.0794 27.5445 43.9158 27.6186 42.6286C26.331 42.1862 25.1023 41.7642 23.8736 41.3418C23.9107 41.1178 23.9478 40.8938 23.985 40.6698C24.4035 40.6698 24.8243 40.6414 25.2401 40.6746C27.8572 40.8842 30.5062 41.4714 33.0813 41.237C36.5168 40.9246 38.7496 38.5866 40.1432 35.4906C40.3028 35.1362 40.5352 34.659 40.42 34.3602C38.7304 29.9812 37.8108 25.167 33.5268 22.2312C33.0135 21.8794 32.8631 20.998 32.6084 20.2266C34.9002 22.4262 37.1137 24.7751 39.3628 27.0895C40.2472 27.9996 41.1548 28.9049 42.1532 29.6819C43.3176 30.588 44.09 31.335 43.018 32.945C41.8508 34.6978 41.256 36.8554 39.9872 38.5118C37.7328 41.455 34.6212 43.0414 30.8086 42.779C29.2288 42.6702 28.7185 43.195 28.7758 44.787C28.8681 47.349 28.5197 47.6218 25.8944 47.5906C24.5136 47.5738 23.1343 47.4346 21.6411 47.2154Z" fill="#299E7E"/>
<path d="M37.9856 27.2243C38.22 27.4586 38.6 27.4586 38.8344 27.2243C39.0684 26.99 39.0684 26.6101 38.8344 26.3758L37.9856 27.2243ZM24.7773 47.5993C25.1082 47.6173 25.3911 47.3637 25.4091 47.0329C25.4272 46.7017 25.1736 46.4189 24.8427 46.4009L24.7773 47.5993ZM29.7857 19.0243L37.9856 27.2243L38.8344 26.3758L30.6343 18.1758L29.7857 19.0243ZM13.7773 46.9993L24.7773 47.5993L24.8427 46.4009L13.8427 45.8009L13.7773 46.9993Z" fill="#299E7E"/>
<path d="M41.2104 33.0002C40.6772 31.867 39.6104 29.5202 39.6104 29.2002L42.4104 31.6002C42.5704 32.2402 41.6772 32.8002 41.2104 33.0002Z" fill="white" stroke="white" stroke-miterlimit="16"/>
</g>
<defs>
<clipPath id="clip0_19599_2515">
<rect x="0.410156" width="56" height="56" rx="6" fill="white"/>
</clipPath>
</defs>
</svg>
