<svg width="57" height="56" viewBox="0 0 57 56" fill="none" xmlns="http://www.w3.org/2000/svg">
<g clip-path="url(#clip0_19599_2458)">
<path d="M0.367676 5.78005C0.569796 3.14257 1.74708 1.35121 4.12576 0.23225C6.0252 0.0942502 7.81644 0.00741049 9.60776 0.0058105C22.8934 -0.0057935 36.1792 -0.00292166 49.4648 0.00485034C50.3928 0.00537034 51.3208 0.0816502 52.4184 0.13113C54.5796 1.15209 56.0416 2.58765 56.4088 5.23725C56.4224 20.9109 56.4224 36.2551 56.4224 51.5991C56.3952 51.6603 56.3676 51.7215 56.2484 51.9747C55.8032 52.8755 55.4504 53.5843 55.0972 54.2931C55.0972 54.2931 55.1832 54.4059 55.0228 54.3839C54.3124 54.7759 53.7616 55.1903 53.0584 55.6131C52.2096 55.7743 51.5128 55.9267 50.6304 56.0503C35.2327 56.0143 20.0211 56.0067 4.80952 55.9995C1.6296 54.8655 0.360636 52.6035 0.376756 49.2475C0.445996 34.8207 0.400476 20.3932 0.367676 5.78005ZM21.1097 35.4338C21.1965 36.3307 21.1699 37.2583 21.402 38.1155C21.6341 38.9731 21.982 40.3391 22.5282 40.4739C24.3934 40.9347 23.9769 42.2287 24.003 43.4163C24.0264 44.4815 24.0504 45.5499 23.9987 46.6131C23.9479 47.6567 24.3932 48.0375 25.4137 48.0087C27.0777 47.9619 28.7558 47.8731 30.4063 48.0303C32.3289 48.2135 33.0034 47.5583 32.8429 45.6111C32.5694 42.2907 32.9521 39.1147 35.4777 36.5439C35.8764 36.1383 35.9584 35.3168 35.992 34.6772C36.0944 32.745 35.5154 30.779 36.7172 28.9165C37.0464 28.406 36.6208 27.3905 36.5012 26.613C36.3616 25.7078 36.0508 24.8109 36.0404 23.9079C36.0208 22.1605 36.1204 20.4499 34.6452 19.1035C34.3842 18.8653 34.3573 18.0976 34.5278 17.7083C35.1686 16.2454 34.7691 15.1817 33.6021 14.195C33.2093 13.8628 32.8926 13.2459 32.845 12.7311C32.4814 8.79997 32.5048 8.79781 28.6251 8.79781C27.959 8.79781 27.2928 8.79733 26.6267 8.79789C24.0107 8.79993 23.9661 8.80097 24.0192 11.3662C24.0849 14.5414 23.98 17.6007 21.4922 20.0773C20.9717 20.5955 20.7049 21.7592 20.8724 22.501C21.2894 24.3482 20.8138 25.9765 20.2054 27.6398C20.0947 27.9425 19.9432 28.3757 20.0716 28.5976C21.265 30.6604 20.7518 32.943 21.1097 35.4338ZM16.7181 31.8514C17.4369 31.6121 18.1768 31.4182 18.8598 31.1017C19.0309 31.0225 19.1054 30.5352 19.0605 30.2624C19.0324 30.0917 18.6385 29.8082 18.5108 29.8548C17.6246 30.1784 16.2036 29.9596 16.7181 31.8514ZM39.9604 26.2285C40.0492 25.8279 40.1384 25.4274 40.2276 25.0268C39.6368 25.1273 38.9508 25.0788 38.4848 25.3755C38.1164 25.6101 38.018 26.2687 37.7996 26.739C37.9652 26.8258 38.1312 26.9126 38.2968 26.9994C38.7712 26.7844 39.2456 26.5695 39.9604 26.2285ZM38.4308 31.404C39.2072 31.7064 40.0888 32.6041 40.6088 30.9634C40.0012 30.6382 39.4444 30.2703 38.8352 30.0441C38.5372 29.9336 38.1416 30.0867 37.79 30.1205C37.9196 30.5016 38.0492 30.8826 38.4308 31.404ZM16.5816 25.0177C16.4544 26.4515 17.5295 27.0009 19.6941 26.0713C18.4806 25.5673 17.6495 25.2222 16.5816 25.0177ZM38.3888 34.1818C37.9508 34.1263 37.5132 34.0709 37.0752 34.0154C37.4768 34.7985 37.8784 35.5817 38.2724 36.3507C40.0032 35.5764 39.1996 34.9746 38.3888 34.1818ZM19.238 35.3905C19.3708 34.8975 19.5036 34.4045 19.6364 33.9115C19.1911 34.0459 18.5941 34.0498 18.3386 34.3472C18.0085 34.7312 17.9514 35.3498 17.7768 35.8674C18.2002 35.7721 18.6237 35.6769 19.238 35.3905Z" fill="#31AF89"/>
<path d="M21.0458 35.2803C20.7518 32.9432 21.265 30.6606 20.0716 28.5979C19.9432 28.376 20.0947 27.9427 20.2054 27.6401C20.8138 25.9768 21.2893 24.3484 20.8724 22.5012C20.7049 21.7594 20.9717 20.5957 21.4922 20.0775C23.98 17.601 24.0848 14.5416 24.0192 11.3665C23.9661 8.80123 24.0107 8.80019 26.6267 8.79811C27.2928 8.79759 27.959 8.79803 28.6251 8.79803C32.5048 8.79803 32.4814 8.80023 32.845 12.7313C32.8926 13.2462 33.2093 13.8631 33.6021 14.1952C34.7691 15.182 35.1686 16.2457 34.5278 17.7085C34.3573 18.0978 34.3842 18.8655 34.6452 19.1038C36.1204 20.4501 36.0208 22.1607 36.0404 23.9081C36.0508 24.8112 36.3616 25.7081 36.5012 26.6132C36.6208 27.3907 37.0464 28.4063 36.7172 28.9167C35.5154 30.7793 36.0944 32.7452 35.992 34.6774C35.9584 35.317 35.8764 36.1385 35.4777 36.5441C32.9521 39.1149 32.5694 42.2909 32.8429 45.6113C33.0034 47.5585 32.3288 48.2137 30.4063 48.0305C28.7558 47.8733 27.0777 47.9621 25.4137 48.0089C24.3932 48.0377 23.9479 47.6569 23.9987 46.6133C24.0504 45.5501 24.0264 44.4817 24.003 43.4165C23.9769 42.2289 24.3934 40.9349 22.5282 40.4741C21.982 40.3393 21.6341 38.9733 21.402 38.1157C21.1699 37.2585 21.1965 36.3309 21.0458 35.2803ZM23.73 33.5994C23.2977 33.6974 22.8654 33.7954 22.1775 34.0207C22.1151 35.5341 23.9701 36.7413 22.8899 38.4609C22.8161 38.5781 23.389 39.3897 23.6833 39.4033C25.4478 39.4857 25.201 40.7317 25.2109 41.8393C25.2242 43.3345 25.2142 44.8298 25.2142 46.2973C27.4358 46.2973 29.3431 46.2973 31.1979 46.2973C31.3154 46.0901 31.4229 45.9818 31.4352 45.8638C31.4762 45.4685 31.526 45.0669 31.4964 44.6733C31.2494 41.3917 31.8536 38.4393 33.9469 35.7043C34.571 34.8889 34.3424 32.9981 33.8684 31.8664C33.1974 30.2644 31.5492 30.145 30.0042 30.5089C30.3398 31.6255 30.6646 32.7065 30.9895 33.7875C30.8082 33.9123 30.6269 34.0371 30.4456 34.1619C28.9676 32.8584 28.7265 29.8307 26.2082 30.3927C25.8192 31.182 25.5894 31.8105 25.2222 32.3446C24.8971 32.8176 24.4192 33.1856 23.73 33.5994ZM30.3063 25.267C29.6629 26.2705 30.3786 26.6079 31.0558 26.3005C32.1996 25.7813 33.7121 25.1542 34.1179 24.1772C34.56 23.1129 34.1408 21.515 33.6861 20.3041C33.2391 19.1136 31.6609 18.2418 33.1708 16.7334C33.3058 16.5986 32.8098 15.7908 32.5586 15.3213C32.2322 14.7115 31.6578 14.1615 31.5495 13.5247C31.3778 12.5143 31.5037 11.4534 31.5037 10.3755C29.2684 10.3755 27.3154 10.3755 25.0513 10.3755C25.9177 14.974 24.7969 18.9895 22.0767 22.1003C23.5868 23.1082 24.824 23.934 26.1279 24.8044C25.8612 25.3748 25.6548 25.8165 25.4123 26.3351C27.4724 26.3496 28.8214 25.4737 29.5 23.5357C29.6245 23.1803 30.0136 22.9176 30.2806 22.6121C30.4603 23.0293 30.7447 23.4361 30.7873 23.8669C30.8228 24.2254 30.5742 24.612 30.3063 25.267ZM25.8757 28.8064C26.7776 28.98 27.8065 29.5192 28.5576 29.2584C30.7846 28.485 32.7047 28.9655 34.9086 30.4831C34.9086 28.8804 34.9086 27.6755 34.9086 26.6524C30.4733 27.9546 26.3224 28.0763 21.9542 26.529C21.9542 27.7083 21.9542 28.9611 21.9542 30.167C23.3367 29.6443 24.4392 29.2276 25.8757 28.8064ZM23.7958 25.0922C23.9512 25.5036 24.1065 25.915 24.2619 26.3264C24.4131 26.2183 24.5643 26.1103 24.7154 26.0022C24.4761 25.7325 24.2368 25.4629 23.7958 25.0922ZM23.1818 24.2579C23.034 24.1571 22.8862 24.0561 22.7384 23.9552C22.6758 24.1186 22.6131 24.2819 22.5504 24.4453C22.7414 24.4575 22.9324 24.4698 23.1818 24.2579Z" fill="#299D7D"/>
<path d="M16.6202 31.7435C16.2035 29.9605 17.6245 30.1792 18.5107 29.8557C18.6384 29.8091 19.0323 30.0926 19.0604 30.2633C19.1053 30.536 19.0308 31.0233 18.8597 31.1026C18.1767 31.419 17.4368 31.6129 16.6202 31.7435Z" fill="#209977"/>
<path d="M39.8397 26.2919C39.2453 26.5699 38.7709 26.7849 38.2965 26.9999C38.1309 26.9131 37.9649 26.8263 37.7993 26.7395C38.0177 26.2692 38.1161 25.6106 38.4845 25.376C38.9505 25.0793 39.6365 25.1278 40.2273 25.0273C40.1381 25.4279 40.0489 25.8284 39.8397 26.2919Z" fill="#209977"/>
<path d="M38.3044 31.3341C38.0488 30.8828 37.9192 30.5018 37.7896 30.1208C38.1412 30.087 38.5368 29.9338 38.8348 30.0444C39.444 30.2706 40.0008 30.6385 40.6084 30.9637C40.0884 32.6043 39.2068 31.7066 38.3044 31.3341Z" fill="#209977"/>
<path d="M16.7 24.9482C17.6495 25.2231 18.4806 25.5682 19.6941 26.0722C17.5294 27.0018 16.4543 26.4524 16.7 24.9482Z" fill="#209977"/>
<path d="M38.4852 34.2771C39.1996 34.9748 40.0032 35.5766 38.2724 36.3509C37.8784 35.5819 37.4768 34.7988 37.0752 34.0156C37.5132 34.0711 37.9508 34.1266 38.4852 34.2771Z" fill="#209977"/>
<path d="M19.1422 35.4866C18.6233 35.6775 18.1998 35.7727 17.7764 35.868C17.951 35.3504 18.0081 34.7318 18.3382 34.3478C18.5937 34.0504 19.1907 34.0465 19.636 33.9121C19.5032 34.4051 19.3704 34.8981 19.1422 35.4866Z" fill="#1F9776"/>
<path d="M24.0087 33.6003C24.4192 33.1859 24.8971 32.8179 25.2222 32.3449C25.5894 31.8109 25.8192 31.1823 26.2082 30.393C28.7265 29.831 28.9676 32.8587 30.4456 34.1623C30.6269 34.0375 30.8082 33.9126 30.9895 33.7878C30.6646 32.7068 30.3398 31.6258 30.0042 30.5092C31.5492 30.1453 33.1974 30.2647 33.8684 31.8668C34.3424 32.9984 34.571 34.8892 33.9469 35.7046C31.8536 38.4397 31.2494 41.3921 31.4964 44.6737C31.526 45.0673 31.4762 45.4689 31.4352 45.8641C31.4229 45.9821 31.3154 46.0905 31.1979 46.2977C29.3431 46.2977 27.4358 46.2977 25.2142 46.2977C25.2142 44.8301 25.2242 43.3349 25.2109 41.8397C25.201 40.7321 25.4478 39.4861 23.6833 39.4037C23.389 39.3901 22.8161 38.5785 22.8899 38.4613C23.9701 36.7417 22.1151 35.5344 22.4491 34.0013C23.15 33.8545 23.5794 33.7274 24.0087 33.6003Z" fill="#FBFDFC"/>
<path d="M30.3788 25.127C30.5741 24.6124 30.8227 24.2258 30.7872 23.8673C30.7446 23.4366 30.4602 23.0297 30.2805 22.6125C30.0135 22.918 29.6244 23.1807 29.4999 23.5361C28.8213 25.4741 27.4723 26.35 25.4123 26.3355C25.6547 25.817 25.8612 25.3753 26.1278 24.8049C24.8239 23.9345 23.5867 23.1087 22.0767 22.1007C24.7968 18.9899 25.9176 14.9744 25.0512 10.376C27.3154 10.376 29.2684 10.376 31.5036 10.376C31.5036 11.4539 31.3777 12.5148 31.5494 13.5251C31.6577 14.1619 32.2321 14.7119 32.5585 15.3217C32.8097 15.7912 33.3057 16.5991 33.1708 16.7338C31.6609 18.2422 33.239 19.1141 33.6861 20.3045C34.1408 21.5154 34.5599 23.1133 34.1179 24.1777C33.7121 25.1546 32.1996 25.7817 31.0558 26.3009C30.3786 26.6083 29.6628 26.2709 30.3788 25.127Z" fill="#FBFDFC"/>
<path d="M25.7085 28.8089C24.439 29.2279 23.3365 29.6447 21.9541 30.1673C21.9541 28.9613 21.9541 27.7085 21.9541 26.5293C26.3222 28.0766 30.4731 27.9549 34.9085 26.6527C34.9085 27.6758 34.9085 28.8807 34.9085 30.4834C32.7045 28.9659 30.7845 28.4853 28.5575 29.2587C27.8064 29.5195 26.7775 28.9803 25.7085 28.8089Z" fill="#F3F9F7"/>
<path d="M23.8965 25.1426C24.2366 25.4627 24.476 25.7324 24.7153 26.0021C24.5642 26.1101 24.413 26.2182 24.2618 26.3262C24.1064 25.9148 23.951 25.5035 23.8965 25.1426Z" fill="#39A487"/>
<path d="M23.1525 24.3699C22.9323 24.4697 22.7413 24.4574 22.5503 24.4452C22.613 24.2818 22.6757 24.1184 22.7383 23.9551C22.8861 24.056 23.0339 24.1569 23.1525 24.3699Z" fill="#39A487"/>
<path d="M23.8692 33.5996C23.5792 33.727 23.1498 33.8541 22.5767 33.9373C22.8652 33.7954 23.2975 33.6974 23.8692 33.5996Z" fill="#2A9A7C"/>
</g>
<defs>
<clipPath id="clip0_19599_2458">
<rect x="0.410156" width="56" height="56" rx="6" fill="white"/>
</clipPath>
</defs>
</svg>
