<svg width="57" height="56" viewBox="0 0 57 56" fill="none" xmlns="http://www.w3.org/2000/svg">
<g clip-path="url(#clip0_19599_1515)">
<path d="M4.81481 0.103071C20.7482 0.0887558 36.5202 0.0978262 52.4625 0.0950657C53.0974 0.0943952 53.4748 0.400305 54.0478 0.524333C54.7865 1.01867 55.2861 1.5698 55.8532 2.25418C56.3714 3.13232 56.7552 3.91403 56.8845 4.94837C56.9141 5.29999 56.9216 5.50305 56.9287 5.86299C56.9385 6.23409 56.9417 6.44854 56.9488 6.83021C56.9594 7.22777 56.9654 7.45812 56.9807 7.86964C56.9831 21.896 57.0517 35.7414 56.9456 49.7694C56.4578 52.8972 54.8941 54.9033 51.7676 55.733C36.5447 55.8446 21.5049 55.8119 6.28505 55.7638C2.83647 55.597 1.53373 53.2698 0.443658 50.4895C0.302254 49.8507 0.290293 49.3763 0.372451 48.7181C0.642852 47.9053 0.608503 47.2451 0.608345 46.5893C0.605466 33.3208 0.621517 20.0526 0.573286 6.61094C0.249184 3.41906 1.63007 1.29749 4.81481 0.103071Z" fill="#31AF89"/>
<path d="M34.8196 46.2262C32.246 45.9552 30.8474 44.6578 30.4298 42.0723C29.7475 37.8494 29.8231 33.6254 30.6501 29.4293C30.9827 27.7422 30.3284 26.804 28.5679 26.4268C28.3465 26.3875 28.2732 26.3476 28.1111 26.3961C28.0223 26.4844 28.0271 26.6414 28.0256 26.7199C27.9272 26.8847 27.8367 26.9772 27.687 27.1476C27.6215 27.2194 27.6199 27.2098 27.6247 27.2105C27.5288 27.2935 27.4374 27.3851 27.2902 27.5581C27.3041 31.5285 27.8713 35.4119 27.6137 39.3189C27.4794 41.355 27.0584 43.3071 25.4158 44.8944C25.1098 45.1208 24.8694 45.1417 24.5566 45.2828C24.4681 45.3601 24.4661 45.3515 24.4697 45.3542C24.2945 45.5191 24.0555 45.536 23.7585 45.6958C23.3347 46.2076 22.8495 46.3788 22.2123 46.5188C20.0988 46.1161 18.0961 46.4159 15.9587 46.4391C10.8932 45.54 9.79482 43.2053 9.62911 37.9496C9.39083 30.3908 10.8936 23.0035 15.1988 16.4736C16.1554 15.0227 17.4097 13.8639 18.6818 12.754C20.0223 11.5845 21.6026 11.8421 23.0465 12.7172C24.6824 13.7088 24.8912 15.3673 24.6046 16.9926C24.3028 18.7047 24.7984 20.0876 25.4197 21.5023C25.6278 21.4838 25.8359 21.4655 26.044 21.4471C26.044 19.264 26.044 17.081 26.044 14.8979C26.0441 13.9789 26.0433 13.0599 26.0446 12.1409C26.0491 8.93739 26.3321 8.84866 29.2868 8.61323C31.7325 8.41837 32.4556 9.94129 32.1438 13.3529C31.8878 16.1531 32.003 18.9177 32.0105 22.0637C33.34 20.3288 33.3572 20.2488 33.5358 15.918C33.6508 13.13 36.4262 11.244 38.7877 12.5605C40.5343 13.5342 42.1631 14.8474 42.6051 17.1924C41.7214 18.0248 41.1551 17.4005 40.616 16.8165C39.9936 16.1427 39.449 15.3855 38.6816 14.8683C37.1463 13.8336 35.5103 14.458 35.344 16.287C35.1481 18.4413 35.0824 20.5841 34.3455 22.6631C34.0249 23.5675 36.0867 26.2251 37.0536 26.4138C37.5565 26.5119 37.7809 26.2144 37.937 25.8353C38.1677 25.2739 38.1098 24.6804 38.096 24.0888C38.0798 23.4132 37.6933 22.5396 38.6942 22.2612C39.5989 22.0096 39.9286 22.7547 40.2287 23.4158C40.1762 22.5571 40.5588 21.9178 41.3992 21.9471C42.2841 21.978 42.322 22.8258 42.1926 23.4559C41.9935 24.4231 42.1997 25.076 43.0973 25.5637C43.5832 25.8278 43.8107 26.3625 43.5907 26.9268C43.3174 27.628 42.7203 27.616 41.9813 27.437C41.4564 27.2098 41.1696 26.8144 40.6869 26.7863C40.4251 26.7711 40.3237 26.8892 40.5832 26.8464C40.8423 26.8035 40.53 27.1536 40.6901 27.1C39.9518 27.8454 39.2353 28.4082 40.0859 29.4855C40.7863 30.3725 41.2978 30.7069 42.236 29.6968C43.7062 28.1136 43.7701 28.1701 44.8755 30.1399C45.0699 30.4863 45.3357 30.7749 45.5783 31.0829C45.874 31.4582 46.0902 31.8613 45.8378 32.342C45.5538 32.8831 45.0794 32.9591 44.5064 32.9304C42.29 32.8192 42.2573 32.8821 43.0409 35.2383C43.6439 35.0147 43.7543 34.0963 44.5072 34.1463C45.3874 34.2051 45.3752 35.0333 45.6449 35.5747C45.9722 36.2318 47.3016 36.5472 46.2913 37.7189C45.5262 38.0821 44.7631 37.7974 44.0627 38.2982C43.7366 38.9608 43.9097 39.576 43.7555 40.1474C43.3738 41.56 42.1142 42.2328 40.8999 41.4516C40.1139 40.9456 39.7649 40.9539 39.1564 41.6314C38.2032 42.6927 37.5036 42.3929 37.0781 41.0651C36.681 39.8256 35.4581 38.3933 38.09 38.2166C38.833 38.1669 38.7443 37.5083 38.6236 36.985C38.4458 36.2144 38.0896 35.525 37.4886 34.7659C37.0611 35.5929 37.3009 36.4021 37.0576 37.1029C36.8399 37.7296 36.5962 38.5423 35.8085 38.3657C34.5761 38.0896 34.5971 36.4325 33.3731 35.8946C32.9222 35.6962 33.5103 34.7205 33.9341 34.2051C34.0591 34.0529 34.2081 33.9204 34.3281 33.7658C34.7466 33.2264 35.6024 32.7652 35.0307 31.9497C34.4698 31.1495 33.6869 30.4812 32.7753 30.1069C32.2434 29.8885 32.191 30.4987 32.1589 30.8594C31.858 34.2477 31.2907 37.6258 32.1329 41.0316C32.6097 42.9604 33.6274 44.1317 35.6442 44.5032C37.9425 44.9267 40.2011 44.9461 42.4734 44.3999C43.7784 44.0863 44.8345 43.3445 45.2856 42.1437C46.0795 40.0287 46.8166 37.9133 46.4463 35.512C45.9293 32.1569 45.6122 28.7729 44.715 25.4832C44.2469 23.7673 43.5871 22.1284 42.8343 20.5205C42.4498 19.6986 41.9465 18.8738 42.5756 17.8325C44.9264 18.4671 44.9863 20.7268 45.566 22.3531C47.3659 27.4017 48.2576 32.6854 48.088 38.0679C48.0257 40.0378 47.8723 42.0163 46.602 43.8237C45.3338 45.6275 43.6364 46.3327 41.5451 46.8611C39.3102 46.1804 37.101 46.6667 34.8196 46.2262Z" fill="#2D9D7E"/>
<path d="M41.6878 26.7724C42.3827 27.1578 43.0937 27.6327 43.378 26.6716C43.6099 25.8889 42.8626 25.7505 42.271 25.633C41.6535 25.5103 40.8419 25.6141 41.375 24.5005C41.7229 23.7744 42.4225 22.605 41.5636 22.2311C40.4648 21.7526 40.8115 23.4839 40.0204 23.9221C39.8552 23.5458 39.7041 23.1654 39.5231 22.7998C39.374 22.4986 39.1674 22.2168 38.7742 22.4149C38.4232 22.5918 38.4571 22.9119 38.4954 23.2609C38.5885 24.1061 38.6527 24.9562 38.6831 25.8059C38.7095 26.5635 38.1594 27.0194 37.6092 27.3452C36.9656 27.7263 36.7803 26.9241 36.3863 26.6693C36.0637 26.4608 35.8542 26.0849 35.5471 25.8435C33.9168 24.5622 33.0372 23.2172 34.2656 21.046C34.9651 19.8096 34.8096 18.2316 34.7166 16.7839C34.6329 15.4808 35.0019 14.3972 36.2656 13.8928C37.4961 13.4016 38.4918 13.9209 39.4813 14.7513C40.4605 15.573 40.8403 17.0671 42.4698 17.32C42.6197 17.4075 42.6291 17.4772 42.6658 17.649C42.3377 18.6071 42.8744 19.2504 43.1919 19.9626C46.0152 26.2941 47.453 32.883 46.5499 39.8254C46.0617 43.5762 44.3699 45.0219 40.5607 45.3161C38.6531 45.4632 36.7507 45.2897 34.8752 44.9553C33.1322 44.6437 32.0848 43.4303 31.7238 41.8019C30.7757 37.5254 31.1643 33.2641 32.0355 28.8171C32.6478 29.2389 33.0824 29.5146 33.4915 29.8238C36.5437 32.1304 36.548 32.1385 33.8654 34.895C33.5211 35.2487 33.1225 35.6407 33.5192 36.0469C34.1973 36.741 34.7441 35.7669 35.3683 35.7109C35.9344 36.4863 34.4189 37.9367 35.7806 38.0412C36.8075 38.1197 36.6277 36.5525 36.7468 35.6202C36.8312 34.9589 36.4183 34.1603 37.3139 33.6397C38.3589 34.5925 38.8456 35.8856 39.348 37.1421C39.8753 38.4605 39.3184 39.0993 37.9113 38.841C37.4685 38.7598 36.9936 38.4116 36.6639 38.8931C36.2451 39.5055 36.8477 39.7741 37.1975 40.1535C38.4449 41.5065 38.4295 41.5207 40.0957 39.9042C40.5327 40.9343 41.1495 41.891 42.4051 41.3342C43.9826 40.6346 43.186 39.1983 43.2996 37.9371C44.2137 37.4647 45.0829 37.7798 46.051 37.5589C46.1887 36.2362 44.7007 35.7772 44.6345 34.5199C44.6238 34.3168 44.1068 34.6734 43.9802 34.9569C43.7448 35.4842 43.7267 36.1167 43.1296 36.5588C42.3117 35.7504 42.3054 34.5724 41.9181 33.5971C41.5265 32.6123 42.6378 31.9185 43.9144 32.2302C44.446 32.36 45.1105 32.8741 45.4918 32.1629C45.9079 31.3875 45.0454 31.2581 44.6262 30.9187C44.4349 30.7638 44.1806 30.5702 44.1455 30.3621C44.0571 29.835 44.6424 29.0146 43.8852 28.8257C42.9647 28.596 42.8863 29.684 42.5337 30.2299C41.5778 31.7095 40.9073 31.6174 39.9317 30.1618C38.5506 28.1017 38.4788 27.9936 40.5556 26.9211C40.9267 26.5799 41.2516 26.6283 41.6878 26.7724Z" fill="#F9FCFB"/>
<path d="M34.7808 46.2557C36.8884 46.3893 39.1809 45.5698 41.3755 46.7585C39.2152 46.9643 37.0253 47.0038 34.7808 46.2557Z" fill="#1C8769"/>
<path d="M15.9956 46.5256C17.8025 45.7791 19.8335 46.1541 21.9685 46.4101C20.1135 46.5268 18.1453 46.5276 15.9956 46.5256Z" fill="#1B8364"/>
<path d="M24.5898 45.3551C24.6617 45.2301 24.8548 45.0999 25.1722 44.9639C25.1014 45.0885 24.9063 45.2194 24.5898 45.3551Z" fill="#1C8768"/>
<path d="M27.3132 27.5823C27.2992 27.5201 27.3727 27.409 27.5381 27.2549C27.5535 27.3191 27.4771 27.4263 27.3132 27.5823Z" fill="#1E8D6E"/>
<path d="M27.7114 27.1741C27.6962 27.1107 27.7708 27.0016 27.9348 26.8457C27.9499 26.9087 27.8755 27.0186 27.7114 27.1741Z" fill="#1E8D6E"/>
<path d="M28.1216 26.4681C28.0733 26.3318 28.0992 26.1398 28.3789 26.3566C28.3536 26.4354 28.2871 26.4437 28.1216 26.4681Z" fill="#1E8D6E"/>
<path d="M10.8682 36.3861C11.2117 30.5017 12.1435 24.8491 14.8628 19.6275C15.9381 17.5626 17.3309 15.7597 19.084 14.2346C19.9304 13.4982 20.8629 13.1161 21.9644 13.6756C23.0265 14.2152 23.4435 15.067 23.3163 16.2627C23.105 18.2483 23.3627 20.2091 24.1465 22.0315C24.5988 23.0833 24.3469 23.7539 23.5892 24.4419C22.9088 25.0598 22.3114 25.7735 21.6029 26.3541C21.163 26.7146 20.8027 27.6355 20.0206 26.995C19.4278 26.5095 18.8198 25.9182 19.066 24.9877C19.1328 24.735 19.3305 24.482 19.3054 24.2465C19.2289 23.5295 20.152 22.4679 19.0999 22.1642C18.012 21.8502 18.4438 23.2896 17.9838 23.7702C17.069 23.3877 17.5166 21.432 16.4538 21.8956C15.3429 22.3801 16.5432 23.5864 16.6636 24.4831C16.689 24.6723 16.7857 24.8519 16.8804 25.1245C16.4702 25.178 16.098 25.2278 15.7254 25.2748C15.1175 25.3513 14.4041 25.4694 14.4951 26.2332C14.5986 27.1025 15.3727 26.7475 15.9228 26.7514C16.5093 26.7554 17.1266 26.6703 17.6759 26.8221C19.0028 27.1887 19.2713 28.1769 18.3912 29.1805C18.2613 29.3285 18.1135 29.4608 17.9853 29.6101C16.2948 31.578 16.2652 31.5726 14.8994 29.3177C14.6544 28.9132 14.6434 28.1606 13.8771 28.4035C13.2452 28.6038 13.4279 29.1691 13.6108 29.5578C14.0597 30.5121 13.245 30.5032 12.7717 30.698C12.3055 30.89 12.2195 31.1981 12.2889 31.6263C12.3461 31.9782 12.6408 31.9685 12.8893 31.9976C13.7585 32.0993 14.7146 31.4327 15.4958 32.2895C15.6222 32.4281 15.8291 32.637 15.7955 32.7555C15.4784 33.8701 15.1171 34.9723 14.7851 36.0257C14.0848 36.1452 14.0279 35.6569 13.8838 35.3489C13.6782 34.9104 13.8045 34.1646 13.033 34.2774C12.3569 34.3764 12.6713 35.0043 12.6307 35.4148C12.5536 36.1937 11.7365 35.8028 11.2937 36.2619C11.0889 36.3763 11.0203 36.4334 10.8682 36.3861Z" fill="#FAFCFB"/>
<path d="M10.7483 36.4516C10.7847 36.2809 10.9714 36.2955 11.0645 36.3069C11.1465 37.5211 11.9947 37.4687 12.8019 37.4119C13.8334 37.3393 14.4292 37.5949 14.2422 38.8178C14.0878 39.8282 14.1515 40.8539 15.3981 41.1974C16.712 41.5595 17.0213 40.4521 17.4881 39.6401C17.9492 39.7521 18.0498 40.1792 18.3201 40.4264C18.7765 40.8437 18.686 41.8852 19.5303 41.7618C20.4587 41.6257 19.8407 40.8346 19.9409 40.3349C19.9796 40.1417 20.2591 39.952 20.4716 39.8475C20.9402 39.6168 21.2575 39.3407 20.9658 38.7902C20.7287 38.3426 20.3376 38.5039 19.9365 38.5264C17.9129 38.64 17.6417 38.2736 18.4884 36.4804C18.9979 35.4014 19.4309 34.2329 20.5671 33.4443C21.2462 34.5776 20.5983 35.7765 21.0671 36.7786C21.2566 37.1836 21.1087 38.0094 21.9229 37.8449C22.781 37.6714 22.3153 37.0735 22.2136 36.5995C22.1474 36.2907 22.1373 35.9697 22.1052 35.683C22.681 35.3904 22.8701 35.8837 23.1822 36.0387C23.5576 36.2253 23.9024 36.4047 24.2105 35.9772C24.5033 35.571 24.3074 35.2311 23.9984 34.944C23.0689 34.0803 21.2333 33.2512 21.7098 32.114C22.3519 30.5814 24.2004 29.7424 25.8914 28.7246C26.4817 33.2377 26.8424 37.5499 25.6637 41.8576C25.0932 43.9422 23.5999 44.8043 21.6054 44.9597C20.4287 45.0516 19.2407 45.0173 18.058 45.0102C13.112 44.9798 11.1909 43.2477 10.7323 38.3962C10.6769 37.8098 10.7164 37.2143 10.7483 36.4516Z" fill="#F9FCFB"/>
<path d="M32.5431 27.4145C31.0694 26.6883 30.7016 24.7027 28.9553 24.6422C27.2363 24.5826 26.8334 26.4289 25.6087 27.1552C20.8651 29.9683 17.3406 33.7736 16.0862 39.3377C16.0539 39.4813 15.8387 39.583 15.3867 40.005C15.9335 35.6701 17.1077 32.0797 20.2419 29.363C20.539 29.1054 20.8635 28.8797 21.1723 28.6354C25.3087 25.3635 28.4605 21.6462 27.3281 15.8103C27.1073 14.672 27.3025 13.4524 27.3115 12.2703C27.3282 10.0804 27.5265 9.97744 29.6889 10.1591C30.6971 10.2437 30.8443 10.667 30.8306 11.5211C30.7843 14.4101 30.8504 17.3015 30.7659 20.1889C30.7228 21.6624 31.1887 22.85 32.0841 23.981C33.5577 25.8423 35.1887 27.5362 37.0266 29.0352C40.3464 31.7426 41.5835 35.4741 42.1628 39.5223C42.1857 39.6808 42.0398 39.863 41.7231 40.1935C40.514 34.6065 37.2621 30.5515 32.5431 27.4145Z" fill="#F5FAF8"/>
<path d="M46.0198 37.471C45.4783 38.2901 44.5326 37.622 43.5664 37.8567C44.1296 37.1472 45.035 37.5913 46.0198 37.471Z" fill="#387E6A"/>
<path d="M41.7458 26.7797C41.5175 26.8841 41.2324 26.8805 40.8057 26.8594C40.8632 25.9285 41.3254 26.5955 41.7458 26.7797Z" fill="#1B8A6B"/>
<path d="M0.804688 48.9017V5.87414C0.804688 4.37468 1.67229 1.25844 5.14272 0.789062" stroke="#31AF89" stroke-width="2.5"/>
</g>
<defs>
<clipPath id="clip0_19599_1515">
<rect x="0.410156" width="56" height="56" rx="6" fill="white"/>
</clipPath>
</defs>
</svg>
