<svg width="33" height="32" viewBox="0 0 33 32" fill="none" xmlns="http://www.w3.org/2000/svg">
<rect x="6.41016" y="6" width="20" height="20" rx="6" fill="#D4F7E6"/>
<path d="M23.4102 10.5C23.4102 11.3284 22.7386 12 21.9102 12C21.0817 12 20.4102 11.3284 20.4102 10.5C20.4102 9.67157 21.0817 9 21.9102 9C22.7386 9 23.4102 9.67157 23.4102 10.5Z" fill="#35B48B"/>
<path fill-rule="evenodd" clip-rule="evenodd" d="M16.4102 21C19.1716 21 21.4102 18.7614 21.4102 16C21.4102 13.2386 19.1716 11 16.4102 11C13.6487 11 11.4102 13.2386 11.4102 16C11.4102 18.7614 13.6487 21 16.4102 21ZM16.4102 19C18.067 19 19.4102 17.6569 19.4102 16C19.4102 14.3431 18.067 13 16.4102 13C14.7533 13 13.4102 14.3431 13.4102 16C13.4102 17.6569 14.7533 19 16.4102 19Z" fill="#35B48B"/>
<path fill-rule="evenodd" clip-rule="evenodd" d="M6.41016 15.6C6.41016 12.2397 6.41016 10.5595 7.06412 9.27606C7.63936 8.14708 8.55724 7.2292 9.68621 6.65396C10.9697 6 12.6498 6 16.0102 6H16.8102C20.1705 6 21.8506 6 23.1341 6.65396C24.2631 7.2292 25.181 8.14708 25.7562 9.27606C26.4102 10.5595 26.4102 12.2397 26.4102 15.6V16.4C26.4102 19.7603 26.4102 21.4405 25.7562 22.7239C25.181 23.8529 24.2631 24.7708 23.1341 25.346C21.8506 26 20.1705 26 16.8102 26H16.0102C12.6498 26 10.9697 26 9.68621 25.346C8.55724 24.7708 7.63936 23.8529 7.06412 22.7239C6.41016 21.4405 6.41016 19.7603 6.41016 16.4V15.6ZM16.0102 8H16.8102C18.5233 8 19.6879 8.00156 20.5881 8.0751C21.4649 8.14674 21.9133 8.27659 22.2261 8.43597C22.9788 8.81947 23.5907 9.43139 23.9742 10.184C24.1336 10.4968 24.2634 10.9452 24.3351 11.8221C24.4086 12.7223 24.4102 13.8868 24.4102 15.6V16.4C24.4102 18.1132 24.4086 19.2777 24.3351 20.1779C24.2634 21.0548 24.1336 21.5032 23.9742 21.816C23.5907 22.5686 22.9788 23.1805 22.2261 23.564C21.9133 23.7234 21.4649 23.8533 20.5881 23.9249C19.6879 23.9984 18.5233 24 16.8102 24H16.0102C14.297 24 13.1324 23.9984 12.2322 23.9249C11.3554 23.8533 10.907 23.7234 10.5942 23.564C9.84155 23.1805 9.22962 22.5686 8.84613 21.816C8.68675 21.5032 8.5569 21.0548 8.48526 20.1779C8.41171 19.2777 8.41016 18.1132 8.41016 16.4V15.6C8.41016 13.8868 8.41171 12.7223 8.48526 11.8221C8.5569 10.9452 8.68675 10.4968 8.84613 10.184C9.22962 9.43139 9.84155 8.81947 10.5942 8.43597C10.907 8.27659 11.3554 8.14674 12.2322 8.0751C13.1324 8.00156 14.297 8 16.0102 8Z" fill="#35B48B"/>
</svg>
