<svg width="33" height="32" viewBox="0 0 33 32" fill="none" xmlns="http://www.w3.org/2000/svg">
<path d="M24.3413 15.6548C24.3413 20.2254 20.636 23.9306 16.0654 23.9306C14.3221 23.9306 12.7046 23.3916 11.3707 22.4711L8.5419 23.1783L9.28318 20.3985C8.34191 19.0552 7.78955 17.4195 7.78955 15.6548C7.78955 11.0841 11.4948 7.37891 16.0654 7.37891C20.636 7.37891 24.3413 11.0841 24.3413 15.6548Z" fill="#D4F7E6"/>
<path fill-rule="evenodd" clip-rule="evenodd" d="M16.0653 25.3103C21.3977 25.3103 25.7205 20.9876 25.7205 15.6552C25.7205 10.3228 21.3977 6 16.0653 6C10.7329 6 6.41016 10.3228 6.41016 15.6552C6.41016 17.3868 6.86602 19.012 7.66428 20.4172L6.41016 25.3103L11.4549 24.1406C12.8249 24.8865 14.3956 25.3103 16.0653 25.3103ZM16.0653 23.8249C20.5774 23.8249 24.2351 20.1672 24.2351 15.6552C24.2351 11.1431 20.5774 7.48541 16.0653 7.48541C11.5533 7.48541 7.89557 11.1431 7.89557 15.6552C7.89557 17.3973 8.44085 19.012 9.37005 20.3381L8.63827 23.0822L11.4308 22.3841C12.7476 23.2928 14.3443 23.8249 16.0653 23.8249Z" fill="#35B48B"/>
<path d="M13.6516 11.1731C13.422 10.7121 13.0699 10.7529 12.7141 10.7529C12.0783 10.7529 11.0869 11.5145 11.0869 12.9318C11.0869 14.0934 11.5988 15.365 13.3236 17.2671C14.9881 19.1028 17.1753 20.0524 18.991 20.0201C20.8067 19.9877 21.1803 18.4252 21.1803 17.8976C21.1803 17.6637 21.0352 17.547 20.9352 17.5153C20.3164 17.2184 19.1752 16.665 18.9156 16.5611C18.6559 16.4571 18.5203 16.5977 18.4361 16.6742C18.2006 16.8986 17.7338 17.56 17.574 17.7087C17.4142 17.8575 17.1759 17.7822 17.0767 17.726C16.7119 17.5795 15.7226 17.1395 14.934 16.375C13.9587 15.4296 13.9015 15.1044 13.7177 14.8148C13.5707 14.5832 13.6786 14.4411 13.7324 14.379C13.9425 14.1365 14.2327 13.7622 14.3628 13.5762C14.4929 13.3901 14.3896 13.1077 14.3276 12.9318C14.0611 12.1753 13.8352 11.542 13.6516 11.1731Z" fill="#35B48B"/>
</svg>
