<svg width="33" height="32" viewBox="0 0 33 32" fill="none" xmlns="http://www.w3.org/2000/svg">
<path d="M6.5848 11.8151C6.67661 10.4017 7.81298 9.29398 9.22763 9.22389C11.2761 9.1224 14.2041 9 16.4102 9C18.6162 9 21.5442 9.1224 23.5927 9.22389C25.0073 9.29398 26.1437 10.4017 26.2355 11.8151C26.3235 13.1692 26.4102 14.8355 26.4102 16.1429C26.4102 17.4502 26.3235 19.1165 26.2355 20.4706C26.1437 21.8841 25.0073 22.9917 23.5927 23.0618C21.5442 23.1633 18.6162 23.2857 16.4102 23.2857C14.2041 23.2857 11.2761 23.1633 9.22763 23.0618C7.81298 22.9917 6.67661 21.884 6.5848 20.4706C6.49684 19.1165 6.41016 17.4502 6.41016 16.1429C6.41016 14.8355 6.49684 13.1692 6.5848 11.8151Z" fill="#35B48B"/>
<path d="M14.2671 13.2852V18.9994L19.9814 16.1423L14.2671 13.2852Z" fill="#D4F7E6"/>
</svg>
