<svg width="216" height="64" viewBox="0 0 216 64" fill="none" xmlns="http://www.w3.org/2000/svg">
<g clip-path="url(#clip0_20052_652)">
<path d="M198.799 0.000208H17.2106C16.5487 0.000208 15.8947 0.000208 15.2346 0.003408C14.6819 0.006608 14.1337 0.015904 13.5758 0.023728C12.3637 0.0363709 11.1545 0.13089 9.95866 0.306464C8.76448 0.48586 7.60771 0.824073 6.52747 1.30966C5.44855 1.79936 4.46271 2.43568 3.60572 3.19552C2.74423 3.95323 2.02611 4.82903 1.47897 5.78926C0.930325 6.74758 0.549892 7.77451 0.350812 8.83458C0.149839 9.8933 0.0416938 10.9642 0.0273466 12.0378C0.0105957 12.5283 0.00882671 13.0205 0 13.5112V50.494C0.00882671 50.9908 0.0105957 51.472 0.0273466 51.969C0.0416982 53.0425 0.149844 54.1134 0.350812 55.172C0.549343 56.2327 0.929798 57.2602 1.47897 58.2189C2.02586 59.176 2.74408 60.0483 3.60572 60.8018C4.45946 61.565 5.44594 62.2018 6.52747 62.6877C7.6077 63.1746 8.76435 63.5148 9.95866 63.697C11.1547 63.8712 12.3638 63.9657 13.5758 63.9799C14.1337 63.9908 14.6819 63.997 15.2346 63.997C15.8947 64.0002 16.5487 64.0002 17.2106 64.0002H198.799C199.448 64.0002 200.107 64.0002 200.756 63.997C201.306 63.997 201.87 63.9908 202.42 63.9799C203.63 63.9665 204.836 63.8719 206.03 63.697C207.228 63.5136 208.389 63.1734 209.474 62.6877C210.555 62.2015 211.54 61.5648 212.394 60.8018C213.253 60.0454 213.973 59.1737 214.526 58.2189C215.071 57.2595 215.448 56.2321 215.644 55.172C215.845 54.1132 215.957 53.0426 215.979 51.969C215.986 51.472 215.986 50.9908 215.986 50.494C216 49.9127 216 49.3346 216 48.7439V15.258C216 14.6721 216 14.0908 215.986 13.5112C215.986 13.0205 215.986 12.5283 215.979 12.0377C215.957 10.9641 215.845 9.89338 215.644 8.83451C215.448 7.77506 215.071 6.74821 214.526 5.7892C213.412 3.86452 211.645 2.29785 209.474 1.30952C208.389 0.825116 207.228 0.486993 206.03 0.30632C204.837 0.129972 203.63 0.0354204 202.42 0.023504C201.87 0.015696 201.306 0.00632 200.756 0.0032C200.107 0 199.448 0.000208 198.799 0.000208Z" fill="url(#paint0_linear_20052_652)"/>
<path d="M15.2432 62.6004C14.6933 62.6004 14.1566 62.5942 13.6109 62.5833C12.4806 62.5702 11.3529 62.483 10.237 62.3223C9.19658 62.1635 8.18867 61.868 7.24653 61.4457C6.31303 61.0268 5.46161 60.4776 4.72487 59.8191C3.97747 59.1684 3.35523 58.4136 2.88279 57.5847C2.40516 56.7505 2.07461 55.8562 1.90265 54.9332C1.71695 53.9414 1.61649 52.9385 1.60211 51.9332C1.59067 51.5958 1.57568 50.4722 1.57568 50.4722V13.5113C1.57568 13.5113 1.59164 12.4051 1.6022 12.0801C1.61596 11.0764 1.71585 10.075 1.90099 9.08476C2.07326 8.15919 2.40407 7.26239 2.88196 6.4254C3.35266 5.5971 3.97145 4.84177 4.71435 4.18868C5.45641 3.52939 6.31056 2.97736 7.24565 2.55273C8.18562 2.13174 9.19163 1.83836 10.23 1.68242C11.3495 1.52013 12.4811 1.43238 13.6154 1.41993L15.2441 1.40039H200.747L202.395 1.42071C203.519 1.43255 204.64 1.51951 205.75 1.68085C206.798 1.83875 207.815 2.13418 208.766 2.55741C210.639 3.41317 212.163 4.76705 213.125 6.4293C213.595 7.26052 213.921 8.15 214.091 9.06757C214.278 10.066 214.383 11.0752 214.405 12.0871C214.41 12.5402 214.41 13.027 214.41 13.5113C214.424 14.1113 214.424 14.6824 214.424 15.2582V48.7441C214.424 49.3254 214.424 49.8926 214.41 50.4644C214.41 50.9847 214.41 51.4614 214.403 51.9519C214.382 52.9458 214.279 53.937 214.094 54.9175C213.926 55.8472 213.597 56.7484 213.12 57.5895C212.644 58.4094 212.025 59.1576 211.286 59.8066C210.549 60.4687 209.696 61.0211 208.76 61.4426C207.812 61.8682 206.797 62.1648 205.75 62.3223C204.634 62.4838 203.506 62.5711 202.376 62.5833C201.847 62.5942 201.293 62.6004 200.756 62.6004L198.799 62.6036L15.2432 62.6004Z" fill="url(#paint1_linear_20052_652)"/>
<path d="M51.6303 32.4817C51.6475 31.1462 52.0022 29.8368 52.6615 28.6753C53.3207 27.5138 54.263 26.5379 55.4008 25.8384C54.678 24.8061 53.7245 23.9566 52.616 23.3574C51.5074 22.7581 50.2745 22.4255 49.0149 22.3861C46.3281 22.1041 43.7234 23.9938 42.3543 23.9938C40.9587 23.9938 38.8507 22.4141 36.5807 22.4608C35.1124 22.5083 33.6815 22.9352 32.4273 23.7001C31.173 24.465 30.1384 25.5417 29.424 26.8254C26.3296 32.1829 28.6378 40.0566 31.6019 44.3871C33.085 46.5077 34.8182 48.8764 37.0861 48.7924C39.3054 48.7004 40.1343 47.3772 42.8132 47.3772C45.4672 47.3772 46.2449 48.7924 48.5588 48.739C50.9402 48.7004 52.4406 46.609 53.8716 44.4684C54.9372 42.9574 55.7571 41.2875 56.3011 39.5204C54.9175 38.9352 53.7369 37.9557 52.9063 36.704C52.0757 35.4524 51.6319 33.9839 51.6303 32.4817Z" fill="white"/>
<path d="M47.2599 19.5381C48.5584 17.9794 49.1981 15.9759 49.0432 13.9531C47.0594 14.1615 45.227 15.1096 43.911 16.6085C43.2676 17.3408 42.7748 18.1927 42.4608 19.1155C42.1468 20.0383 42.0178 21.014 42.0811 21.9867C43.0733 21.9969 44.0549 21.7819 44.952 21.3577C45.849 20.9336 46.6382 20.3114 47.2599 19.5381Z" fill="white"/>
<path d="M79.6835 43.4243H72.1101L70.2913 48.7946H67.0835L74.2569 28.9258H77.5897L84.7632 48.7946H81.5007L79.6835 43.4243ZM72.8944 40.9461H78.8976L75.9383 32.2305H75.8554L72.8944 40.9461Z" fill="white"/>
<path d="M100.255 41.5523C100.255 46.0539 97.8458 48.946 94.2099 48.946C93.2889 48.9942 92.3729 48.7821 91.5668 48.3338C90.7607 47.8856 90.0972 47.2195 89.6521 46.4116H89.5833V53.5866H86.6099V34.3085H89.488V36.7179H89.5427C90.0083 35.914 90.683 35.2513 91.4952 34.8003C92.3074 34.3494 93.2267 34.127 94.1552 34.157C97.8317 34.157 100.255 37.0632 100.255 41.5523ZM97.199 41.5523C97.199 38.6195 95.6833 36.6914 93.3708 36.6914C91.099 36.6914 89.5708 38.6601 89.5708 41.5523C89.5708 44.471 91.099 46.4257 93.3708 46.4257C95.6833 46.4257 97.199 44.5117 97.199 41.5523Z" fill="white"/>
<path d="M116.199 41.5523C116.199 46.0538 113.79 48.946 110.154 48.946C109.233 48.9942 108.317 48.782 107.511 48.3338C106.705 47.8856 106.041 47.2194 105.596 46.4116H105.527V53.5866H102.554V34.3085H105.432V36.7179H105.487C105.952 35.914 106.627 35.2513 107.439 34.8003C108.251 34.3493 109.171 34.127 110.099 34.157C113.776 34.157 116.199 37.0632 116.199 41.5523ZM113.143 41.5523C113.143 38.6195 111.627 36.6913 109.315 36.6913C107.043 36.6913 105.515 38.6601 105.515 41.5523C105.515 44.471 107.043 46.4257 109.315 46.4257C111.627 46.4257 113.143 44.5117 113.143 41.5523Z" fill="white"/>
<path d="M126.737 43.2579C126.957 45.2282 128.871 46.5219 131.487 46.5219C133.993 46.5219 135.796 45.2282 135.796 43.4516C135.796 41.9094 134.709 40.986 132.134 40.3531L129.559 39.7328C125.91 38.8516 124.216 37.1453 124.216 34.3766C124.216 30.9484 127.204 28.5938 131.446 28.5938C135.644 28.5938 138.523 30.9484 138.619 34.3766H135.618C135.438 32.3937 133.799 31.1969 131.404 31.1969C129.009 31.1969 127.369 32.4078 127.369 34.1703C127.369 35.575 128.416 36.4016 130.977 37.0343L133.166 37.5718C137.243 38.5359 138.937 40.1734 138.937 43.0796C138.937 46.7968 135.976 49.1249 131.266 49.1249C126.86 49.1249 123.885 46.8515 123.693 43.2577L126.737 43.2579Z" fill="white"/>
<path d="M145.354 30.8789V34.307H148.109V36.6617H145.354V44.6477C145.354 45.8883 145.906 46.4664 147.116 46.4664C147.444 46.4607 147.77 46.4377 148.095 46.3976V48.7382C147.55 48.84 146.997 48.886 146.443 48.8757C143.51 48.8757 142.366 47.7742 142.366 44.9648V36.6617H140.26V34.307H142.366V30.8789H145.354Z" fill="white"/>
<path d="M149.704 41.5508C149.704 36.993 152.388 34.1289 156.574 34.1289C160.774 34.1289 163.446 36.9929 163.446 41.5508C163.446 46.1211 160.788 48.9727 156.574 48.9727C152.362 48.9727 149.704 46.1211 149.704 41.5508ZM160.417 41.5508C160.417 38.4242 158.984 36.5789 156.574 36.5789C154.165 36.5789 152.734 38.4383 152.734 41.5508C152.734 44.6898 154.165 46.5211 156.574 46.5211C158.984 46.5211 160.417 44.6898 160.417 41.5508Z" fill="white"/>
<path d="M165.897 34.3084H168.733V36.774H168.802C168.994 36.0039 169.445 35.3234 170.08 34.8468C170.714 34.3702 171.494 34.1265 172.287 34.1568C172.629 34.1556 172.971 34.1928 173.305 34.2678V37.049C172.873 36.9168 172.421 36.8561 171.969 36.8693C171.537 36.8518 171.107 36.928 170.707 37.0926C170.307 37.2572 169.948 37.5064 169.653 37.823C169.359 38.1396 169.137 38.5162 169.002 38.9269C168.867 39.3375 168.822 39.7726 168.871 40.2021V48.7943H165.897L165.897 34.3084Z" fill="white"/>
<path d="M187.015 44.5383C186.615 47.168 184.054 48.9727 180.777 48.9727C176.563 48.9727 173.948 46.1492 173.948 41.6195C173.948 37.0758 176.577 34.1289 180.652 34.1289C184.66 34.1289 187.181 36.882 187.181 41.2742V42.293H176.949V42.4727C176.902 43.0058 176.969 43.5428 177.145 44.0482C177.321 44.5535 177.603 45.0156 177.972 45.4037C178.34 45.7917 178.787 46.097 179.283 46.299C179.778 46.5011 180.311 46.5955 180.846 46.5758C181.549 46.6416 182.254 46.4789 182.857 46.1118C183.459 45.7447 183.928 45.1928 184.192 44.5383L187.015 44.5383ZM176.963 40.2148H184.206C184.232 39.7355 184.16 39.2558 183.992 38.8059C183.825 38.3559 183.566 37.9455 183.232 37.6002C182.899 37.255 182.497 36.9825 182.053 36.7997C181.609 36.617 181.132 36.528 180.652 36.5383C180.168 36.5354 179.688 36.6284 179.24 36.812C178.792 36.9956 178.385 37.2661 178.042 37.6079C177.699 37.9497 177.427 38.3561 177.242 38.8035C177.057 39.251 176.962 39.7306 176.963 40.2148Z" fill="white"/>
<path d="M67.6372 12.9365H71.1987C72.6616 12.9365 73.8009 13.3672 74.6167 14.2285C75.4325 15.0853 75.8403 16.2884 75.8403 17.8379C75.8403 19.4147 75.4347 20.6361 74.6235 21.502C73.8123 22.3678 72.6707 22.8008 71.1987 22.8008H67.6372V12.9365ZM69.1685 14.3311V21.4062H71.0278C72.0623 21.4062 72.8621 21.0986 73.4272 20.4834C73.9969 19.8636 74.2817 18.9886 74.2817 17.8584C74.2817 16.7464 73.9946 15.8805 73.4204 15.2607C72.8507 14.641 72.0532 14.3311 71.0278 14.3311H69.1685ZM77.7612 22.8008V15.3564H79.2241V22.8008H77.7612ZM79.1694 13.7979C78.9917 13.9665 78.7661 14.0508 78.4927 14.0508C78.2192 14.0508 77.9914 13.9665 77.8091 13.7979C77.6313 13.6247 77.5425 13.4105 77.5425 13.1553C77.5425 12.9001 77.6313 12.6859 77.8091 12.5127C77.9914 12.3395 78.2192 12.2529 78.4927 12.2529C78.7661 12.2529 78.9917 12.3395 79.1694 12.5127C79.3517 12.6859 79.4429 12.9001 79.4429 13.1553C79.4429 13.4105 79.3517 13.6247 79.1694 13.7979ZM81.2134 17.4619C81.2134 16.8057 81.4845 16.2679 82.0269 15.8486C82.5692 15.4248 83.2619 15.2129 84.105 15.2129C84.9435 15.2129 85.6203 15.3975 86.1353 15.7666C86.6502 16.1357 86.9442 16.6484 87.0171 17.3047H85.6089C85.5405 17.0267 85.3742 16.8079 85.1099 16.6484C84.8501 16.4889 84.5151 16.4092 84.105 16.4092C83.6903 16.4092 83.3462 16.5003 83.0728 16.6826C82.7993 16.8604 82.6626 17.0928 82.6626 17.3799C82.6626 17.6032 82.7583 17.7878 82.9497 17.9336C83.1411 18.0794 83.4396 18.1979 83.8452 18.2891L85.0825 18.5762C85.798 18.7402 86.3221 18.984 86.6548 19.3076C86.992 19.6312 87.1606 20.0641 87.1606 20.6064C87.1606 21.2992 86.8713 21.862 86.2925 22.2949C85.7137 22.7279 84.9754 22.9443 84.0776 22.9443C83.1935 22.9443 82.478 22.7575 81.9312 22.3838C81.3888 22.0055 81.0858 21.486 81.022 20.8252H82.4917C82.5874 21.1169 82.772 21.3447 83.0454 21.5088C83.3188 21.6729 83.6743 21.7549 84.1118 21.7549C84.5721 21.7549 84.9481 21.6615 85.2397 21.4746C85.5314 21.2878 85.6772 21.0462 85.6772 20.75C85.6772 20.3171 85.3127 20.014 84.5835 19.8408L83.2847 19.54C82.5737 19.3714 82.0496 19.1208 81.7124 18.7881C81.3797 18.4554 81.2134 18.0133 81.2134 17.4619ZM92.7935 15.2334C93.7414 15.2334 94.4933 15.5798 95.0493 16.2725C95.6053 16.9606 95.8833 17.8949 95.8833 19.0752C95.8833 20.2555 95.6053 21.1921 95.0493 21.8848C94.4979 22.5775 93.7505 22.9238 92.8071 22.9238C92.2785 22.9238 91.8136 22.8145 91.4126 22.5957C91.0116 22.3724 90.7131 22.0648 90.5171 21.6729H90.4009V25.2754H88.9312V15.3564H90.3462V16.5869H90.4556C90.6789 16.1631 90.9979 15.8327 91.4126 15.5957C91.8273 15.3542 92.2876 15.2334 92.7935 15.2334ZM92.3765 21.6045C93.0008 21.6045 93.4884 21.3812 93.8394 20.9346C94.1948 20.4834 94.3726 19.8636 94.3726 19.0752C94.3726 18.2868 94.1948 17.6693 93.8394 17.2227C93.4884 16.776 93.0031 16.5527 92.3833 16.5527C91.7635 16.5527 91.2736 16.7806 90.9136 17.2363C90.5535 17.6875 90.3735 18.3027 90.3735 19.082C90.3735 19.8568 90.5535 20.472 90.9136 20.9277C91.2736 21.3789 91.7612 21.6045 92.3765 21.6045ZM100.798 22.9443C99.7046 22.9443 98.8455 22.6003 98.2212 21.9121C97.5968 21.224 97.2847 20.2783 97.2847 19.0752C97.2847 17.8766 97.5968 16.9333 98.2212 16.2451C98.8501 15.557 99.7091 15.2129 100.798 15.2129C101.883 15.2129 102.737 15.557 103.362 16.2451C103.991 16.9333 104.305 17.8766 104.305 19.0752C104.305 20.2783 103.993 21.224 103.369 21.9121C102.744 22.6003 101.888 22.9443 100.798 22.9443ZM100.798 21.6387C101.432 21.6387 101.922 21.4154 102.268 20.9688C102.619 20.5176 102.794 19.8864 102.794 19.0752C102.794 18.2686 102.619 17.6419 102.268 17.1953C101.922 16.7441 101.432 16.5186 100.798 16.5186C100.16 16.5186 99.6681 16.7419 99.3218 17.1885C98.9754 17.6351 98.8022 18.264 98.8022 19.0752C98.8022 19.891 98.9754 20.5221 99.3218 20.9688C99.6681 21.4154 100.16 21.6387 100.798 21.6387ZM106.076 22.8008V15.3564H107.491V16.5391H107.6C107.987 15.6549 108.728 15.2129 109.822 15.2129C110.651 15.2129 111.287 15.4521 111.729 15.9307C112.176 16.4092 112.399 17.0928 112.399 17.9814V22.8008H110.929V18.3506C110.929 17.1566 110.394 16.5596 109.323 16.5596C108.78 16.5596 108.347 16.7305 108.024 17.0723C107.705 17.4095 107.545 17.8675 107.545 18.4463V22.8008H106.076ZM114.498 22.8008V15.3564H115.96V22.8008H114.498ZM115.865 14.1123H114.347L116.063 11.7607H117.786L115.865 14.1123ZM124.423 15.3564L121.744 22.8008H120.165L117.478 15.3564H119.05L120.903 21.2285H121.019L122.865 15.3564H124.423ZM129.988 16.9902C129.66 16.6393 129.224 16.4639 128.682 16.4639C128.14 16.4639 127.693 16.6393 127.342 16.9902C126.991 17.3411 126.795 17.8083 126.754 18.3916H130.514C130.496 17.8037 130.32 17.3366 129.988 16.9902ZM130.507 20.791H131.922C131.754 21.4609 131.385 21.9873 130.815 22.3701C130.25 22.7529 129.543 22.9443 128.696 22.9443C127.629 22.9443 126.789 22.6025 126.173 21.9189C125.563 21.2308 125.257 20.292 125.257 19.1025C125.257 17.9131 125.567 16.9674 126.187 16.2656C126.807 15.5638 127.641 15.2129 128.689 15.2129C129.723 15.2129 130.535 15.5456 131.123 16.2109C131.715 16.8763 132.011 17.7946 132.011 18.9658V19.4785H126.754V19.5605C126.777 20.2168 126.966 20.7363 127.322 21.1191C127.677 21.502 128.149 21.6934 128.737 21.6934C129.635 21.6934 130.225 21.3926 130.507 20.791ZM133.843 22.8008V12.4512H135.313V22.8008H133.843ZM141.349 22.8008V15.3564H142.764V16.5391H142.874C143.261 15.6549 144.001 15.2129 145.095 15.2129C145.925 15.2129 146.56 15.4521 147.002 15.9307C147.449 16.4092 147.672 17.0928 147.672 17.9814V22.8008H146.203V18.3506C146.203 17.1566 145.667 16.5596 144.596 16.5596C144.054 16.5596 143.621 16.7305 143.297 17.0723C142.978 17.4095 142.819 17.8675 142.819 18.4463V22.8008H141.349ZM152.177 21.6865C152.729 21.6865 153.187 21.5316 153.551 21.2217C153.92 20.9118 154.105 20.5244 154.105 20.0596V19.4375L152.287 19.5537C151.776 19.5856 151.4 19.6904 151.159 19.8682C150.917 20.0459 150.796 20.2988 150.796 20.627C150.796 20.9551 150.924 21.2148 151.179 21.4062C151.434 21.5931 151.767 21.6865 152.177 21.6865ZM151.801 22.9238C151.072 22.9238 150.475 22.721 150.01 22.3154C149.55 21.9053 149.32 21.3652 149.32 20.6953C149.32 20.0299 149.559 19.5081 150.038 19.1299C150.516 18.7471 151.2 18.5283 152.088 18.4736L154.105 18.3574V17.7148C154.105 17.3184 153.975 17.0153 153.715 16.8057C153.456 16.5915 153.077 16.4844 152.581 16.4844C152.17 16.4844 151.829 16.5573 151.555 16.7031C151.286 16.8444 151.111 17.0472 151.029 17.3115H149.607C149.68 16.6735 149.992 16.1654 150.543 15.7871C151.099 15.4043 151.801 15.2129 152.649 15.2129C153.579 15.2129 154.296 15.4339 154.802 15.876C155.313 16.3135 155.568 16.9264 155.568 17.7148V22.8008H154.153V21.7549H154.037C153.813 22.1286 153.506 22.418 153.114 22.623C152.726 22.8236 152.289 22.9238 151.801 22.9238Z" fill="white"/>
</g>
<defs>
<linearGradient id="paint0_linear_20052_652" x1="108" y1="0" x2="108" y2="64.0002" gradientUnits="userSpaceOnUse">
<stop stop-color="#108B6A"/>
<stop offset="1" stop-color="#35B48B"/>
</linearGradient>
<linearGradient id="paint1_linear_20052_652" x1="108" y1="1.40039" x2="108" y2="62.6036" gradientUnits="userSpaceOnUse">
<stop stop-color="#108B6A"/>
<stop offset="1" stop-color="#35B48B"/>
</linearGradient>
<clipPath id="clip0_20052_652">
<rect width="216" height="64" fill="white"/>
</clipPath>
</defs>
</svg>
