<svg width="217" height="64" viewBox="0 0 217 64" fill="none" xmlns="http://www.w3.org/2000/svg">
<g clip-path="url(#clip0_19593_6977)">
<path d="M199.209 0.000208H17.6208C16.9588 0.000208 16.3049 0.000208 15.6447 0.003408C15.0921 0.006608 14.5439 0.015904 13.986 0.023728C12.7739 0.0363709 11.5647 0.13089 10.3688 0.306464C9.17463 0.48586 8.01786 0.824073 6.93763 1.30966C5.85871 1.79936 4.87287 2.43568 4.01588 3.19552C3.15438 3.95323 2.43626 4.82903 1.88913 5.78926C1.34048 6.74758 0.960049 7.77451 0.760968 8.83458C0.559995 9.8933 0.45185 10.9642 0.437503 12.0378C0.420752 12.5283 0.418983 13.0205 0.410156 13.5112V50.494C0.418983 50.9908 0.420752 51.472 0.437503 51.969C0.451854 53.0425 0.56 54.1134 0.760968 55.172C0.959499 56.2327 1.33995 57.2602 1.88913 58.2189C2.43601 59.176 3.15424 60.0483 4.01588 60.8018C4.86962 61.565 5.8561 62.2018 6.93763 62.6877C8.01786 63.1746 9.1745 63.5148 10.3688 63.697C11.5649 63.8712 12.774 63.9657 13.986 63.9799C14.5439 63.9908 15.0921 63.997 15.6447 63.997C16.3049 64.0002 16.9589 64.0002 17.6208 64.0002H199.209C199.858 64.0002 200.517 64.0002 201.166 63.997C201.716 63.997 202.28 63.9908 202.83 63.9799C204.04 63.9665 205.247 63.8719 206.44 63.697C207.638 63.5136 208.799 63.1734 209.885 62.6877C210.965 62.2015 211.951 61.5648 212.804 60.8018C213.663 60.0454 214.383 59.1737 214.937 58.2189C215.482 57.2595 215.858 56.2321 216.054 55.172C216.255 54.1132 216.367 53.0426 216.389 51.969C216.396 51.472 216.396 50.9908 216.396 50.494C216.41 49.9127 216.41 49.3346 216.41 48.7439V15.258C216.41 14.6721 216.41 14.0908 216.396 13.5112C216.396 13.0205 216.396 12.5283 216.389 12.0377C216.367 10.9641 216.255 9.89338 216.054 8.83451C215.858 7.77506 215.481 6.74821 214.937 5.7892C213.822 3.86452 212.055 2.29785 209.885 1.30952C208.799 0.825116 207.638 0.486993 206.44 0.30632C205.247 0.129972 204.04 0.0354204 202.83 0.023504C202.28 0.015696 201.716 0.00632 201.166 0.0032C200.517 0 199.858 0.000208 199.209 0.000208Z" fill="url(#paint0_linear_19593_6977)"/>
<path d="M15.6534 62.6004C15.1034 62.6004 14.5667 62.5942 14.0211 62.5833C12.8907 62.5702 11.763 62.483 10.6472 62.3223C9.60674 62.1635 8.59882 61.868 7.65669 61.4457C6.72319 61.0268 5.87176 60.4776 5.13503 59.8191C4.38763 59.1684 3.76538 58.4136 3.29295 57.5847C2.81531 56.7505 2.48476 55.8562 2.31281 54.9332C2.12711 53.9414 2.02664 52.9385 2.01227 51.9332C2.00082 51.5958 1.98584 50.4722 1.98584 50.4722V13.5113C1.98584 13.5113 2.0018 12.4051 2.01236 12.0801C2.02612 11.0764 2.12601 10.075 2.31115 9.08476C2.48342 8.15919 2.81423 7.26239 3.29212 6.4254C3.76282 5.5971 4.38161 4.84177 5.1245 4.18868C5.86657 3.52939 6.72071 2.97736 7.6558 2.55273C8.59577 2.13174 9.60178 1.83836 10.6401 1.68242C11.7596 1.52013 12.8913 1.43238 14.0255 1.41993L15.6543 1.40039H201.157L202.805 1.42071C203.929 1.43255 205.05 1.51951 206.16 1.68085C207.209 1.83875 208.225 2.13418 209.176 2.55741C211.049 3.41317 212.573 4.76705 213.535 6.4293C214.005 7.26052 214.331 8.15 214.501 9.06757C214.688 10.066 214.793 11.0752 214.815 12.0871C214.82 12.5402 214.82 13.027 214.82 13.5113C214.834 14.1113 214.834 14.6824 214.834 15.2582V48.7441C214.834 49.3254 214.834 49.8926 214.82 50.4644C214.82 50.9847 214.82 51.4613 214.813 51.9519C214.792 52.9458 214.689 53.937 214.504 54.9175C214.336 55.8472 214.007 56.7484 213.53 57.5895C213.054 58.4094 212.435 59.1576 211.697 59.8066C210.959 60.4687 210.106 61.0211 209.171 61.4426C208.222 61.8682 207.207 62.1648 206.16 62.3223C205.044 62.4838 203.916 62.5711 202.786 62.5833C202.257 62.5942 201.703 62.6004 201.166 62.6004L199.209 62.6036L15.6534 62.6004Z" fill="white"/>
<path d="M52.0404 32.4817C52.0577 31.1462 52.4124 29.8368 53.0716 28.6753C53.7309 27.5138 54.6732 26.5379 55.8109 25.8384C55.0882 24.8061 54.1346 23.9566 53.0261 23.3574C51.9176 22.7581 50.6846 22.4255 49.4251 22.3861C46.7383 22.1041 44.1336 23.9938 42.7644 23.9938C41.3688 23.9938 39.2608 22.4141 36.9908 22.4608C35.5226 22.5083 34.0916 22.9352 32.8374 23.7001C31.5832 24.465 30.5485 25.5417 29.8342 26.8254C26.7398 32.1829 29.0479 40.0566 32.0121 44.3871C33.4951 46.5077 35.2284 48.8764 37.4963 48.7924C39.7156 48.7004 40.5445 47.3772 43.2233 47.3772C45.8774 47.3772 46.655 48.7924 48.9689 48.739C51.3504 48.7004 52.8508 46.609 54.2818 44.4684C55.3473 42.9574 56.1673 41.2875 56.7112 39.5204C55.3277 38.9352 54.147 37.9557 53.3164 36.704C52.4858 35.4524 52.0421 33.9839 52.0404 32.4817Z" fill="#35B48B"/>
<path d="M47.6701 19.5381C48.9685 17.9794 49.6082 15.9759 49.4533 13.9531C47.4696 14.1615 45.6372 15.1096 44.3212 16.6085C43.6778 17.3408 43.185 18.1927 42.871 19.1155C42.557 20.0383 42.4279 21.014 42.4912 21.9867C43.4835 21.9969 44.4651 21.7819 45.3621 21.3577C46.2592 20.9336 47.0483 20.3114 47.6701 19.5381Z" fill="#35B48B"/>
<path d="M80.0937 43.4243H72.5202L70.7015 48.7946H67.4937L74.6671 28.9258H77.9999L85.1733 48.7946H81.9108L80.0937 43.4243ZM73.3046 40.9461H79.3078L76.3484 32.2305H76.2656L73.3046 40.9461Z" fill="#35B48B"/>
<path d="M100.665 41.5523C100.665 46.0539 98.256 48.946 94.6201 48.946C93.699 48.9942 92.783 48.7821 91.977 48.3338C91.1709 47.8856 90.5073 47.2195 90.0623 46.4116H89.9935V53.5866H87.02V34.3085H89.8982V36.7179H89.9529C90.4184 35.914 91.0932 35.2513 91.9054 34.8003C92.7176 34.3494 93.6369 34.127 94.5654 34.157C98.2419 34.157 100.665 37.0632 100.665 41.5523ZM97.6091 41.5523C97.6091 38.6195 96.0935 36.6914 93.781 36.6914C91.5091 36.6914 89.981 38.6601 89.981 41.5523C89.981 44.471 91.5091 46.4257 93.781 46.4257C96.0935 46.4257 97.6091 44.5117 97.6091 41.5523Z" fill="#35B48B"/>
<path d="M116.609 41.5523C116.609 46.0538 114.2 48.946 110.564 48.946C109.643 48.9942 108.727 48.782 107.921 48.3338C107.115 47.8856 106.451 47.2194 106.006 46.4116H105.937V53.5866H102.964V34.3085H105.842V36.7179H105.897C106.362 35.914 107.037 35.2513 107.849 34.8003C108.661 34.3493 109.581 34.127 110.509 34.157C114.186 34.157 116.609 37.0632 116.609 41.5523ZM113.553 41.5523C113.553 38.6195 112.037 36.6913 109.725 36.6913C107.453 36.6913 105.925 38.6601 105.925 41.5523C105.925 44.471 107.453 46.4257 109.725 46.4257C112.037 46.4257 113.553 44.5117 113.553 41.5523Z" fill="#35B48B"/>
<path d="M127.147 43.2579C127.367 45.2282 129.281 46.5219 131.897 46.5219C134.403 46.5219 136.206 45.2282 136.206 43.4516C136.206 41.9094 135.119 40.986 132.544 40.3531L129.969 39.7328C126.32 38.8516 124.627 37.1453 124.627 34.3766C124.627 30.9484 127.614 28.5938 131.856 28.5938C136.055 28.5938 138.933 30.9484 139.03 34.3766H136.028C135.848 32.3937 134.209 31.1969 131.814 31.1969C129.419 31.1969 127.78 32.4078 127.78 34.1703C127.78 35.575 128.826 36.4016 131.387 37.0343L133.576 37.5718C137.653 38.5359 139.347 40.1734 139.347 43.0796C139.347 46.7968 136.386 49.1249 131.676 49.1249C127.27 49.1249 124.295 46.8515 124.103 43.2577L127.147 43.2579Z" fill="#35B48B"/>
<path d="M145.764 30.8789V34.307H148.519V36.6617H145.764V44.6477C145.764 45.8883 146.316 46.4664 147.527 46.4664C147.854 46.4607 148.18 46.4377 148.505 46.3976V48.7382C147.96 48.84 147.407 48.886 146.853 48.8757C143.92 48.8757 142.777 47.7742 142.777 44.9648V36.6617H140.67V34.307H142.777V30.8789H145.764Z" fill="#35B48B"/>
<path d="M150.114 41.5508C150.114 36.993 152.799 34.1289 156.985 34.1289C161.185 34.1289 163.856 36.9929 163.856 41.5508C163.856 46.1211 161.199 48.9727 156.985 48.9727C152.772 48.9727 150.114 46.1211 150.114 41.5508ZM160.827 41.5508C160.827 38.4242 159.394 36.5789 156.985 36.5789C154.575 36.5789 153.144 38.4383 153.144 41.5508C153.144 44.6898 154.575 46.5211 156.985 46.5211C159.394 46.5211 160.827 44.6898 160.827 41.5508Z" fill="#35B48B"/>
<path d="M166.308 34.3084H169.144V36.774H169.212C169.404 36.0039 169.855 35.3234 170.49 34.8468C171.124 34.3702 171.904 34.1265 172.697 34.1568C173.039 34.1556 173.381 34.1928 173.715 34.2678V37.049C173.283 36.9168 172.832 36.8561 172.379 36.8693C171.948 36.8518 171.517 36.928 171.117 37.0926C170.717 37.2572 170.358 37.5064 170.064 37.823C169.769 38.1396 169.547 38.5162 169.412 38.9269C169.277 39.3375 169.232 39.7726 169.281 40.2021V48.7943H166.308L166.308 34.3084Z" fill="#35B48B"/>
<path d="M187.425 44.5383C187.025 47.168 184.464 48.9727 181.188 48.9727C176.974 48.9727 174.358 46.1492 174.358 41.6195C174.358 37.0758 176.988 34.1289 181.063 34.1289C185.07 34.1289 187.591 36.882 187.591 41.2742V42.293H177.359V42.4727C177.312 43.0058 177.379 43.5428 177.555 44.0482C177.732 44.5535 178.013 45.0156 178.382 45.4037C178.751 45.7917 179.197 46.097 179.693 46.299C180.189 46.5011 180.722 46.5955 181.256 46.5758C181.959 46.6416 182.664 46.4789 183.267 46.1118C183.87 45.7447 184.338 45.1928 184.602 44.5383L187.425 44.5383ZM177.374 40.2148H184.616C184.642 39.7355 184.57 39.2558 184.402 38.8059C184.235 38.3559 183.976 37.9455 183.642 37.6002C183.309 37.255 182.907 36.9825 182.463 36.7997C182.02 36.617 181.543 36.528 181.063 36.5383C180.578 36.5354 180.098 36.6284 179.65 36.812C179.202 36.9956 178.795 37.2661 178.452 37.6079C178.109 37.9497 177.837 38.3561 177.652 38.8035C177.467 39.251 177.372 39.7306 177.374 40.2148Z" fill="#35B48B"/>
<path d="M68.0474 12.9365H71.6089C73.0718 12.9365 74.2111 13.3672 75.0269 14.2285C75.8426 15.0853 76.2505 16.2884 76.2505 17.8379C76.2505 19.4147 75.8449 20.6361 75.0337 21.502C74.2225 22.3678 73.0809 22.8008 71.6089 22.8008H68.0474V12.9365ZM69.5786 14.3311V21.4062H71.438C72.4725 21.4062 73.2723 21.0986 73.8374 20.4834C74.4071 19.8636 74.6919 18.9886 74.6919 17.8584C74.6919 16.7464 74.4048 15.8805 73.8306 15.2607C73.2609 14.641 72.4634 14.3311 71.438 14.3311H69.5786ZM78.1714 22.8008V15.3564H79.6343V22.8008H78.1714ZM79.5796 13.7979C79.4019 13.9665 79.1763 14.0508 78.9028 14.0508C78.6294 14.0508 78.4015 13.9665 78.2192 13.7979C78.0415 13.6247 77.9526 13.4105 77.9526 13.1553C77.9526 12.9001 78.0415 12.6859 78.2192 12.5127C78.4015 12.3395 78.6294 12.2529 78.9028 12.2529C79.1763 12.2529 79.4019 12.3395 79.5796 12.5127C79.7619 12.6859 79.853 12.9001 79.853 13.1553C79.853 13.4105 79.7619 13.6247 79.5796 13.7979ZM81.6235 17.4619C81.6235 16.8057 81.8947 16.2679 82.437 15.8486C82.9793 15.4248 83.672 15.2129 84.5151 15.2129C85.3537 15.2129 86.0304 15.3975 86.5454 15.7666C87.0604 16.1357 87.3543 16.6484 87.4272 17.3047H86.019C85.9507 17.0267 85.7843 16.8079 85.52 16.6484C85.2603 16.4889 84.9253 16.4092 84.5151 16.4092C84.1004 16.4092 83.7563 16.5003 83.4829 16.6826C83.2095 16.8604 83.0728 17.0928 83.0728 17.3799C83.0728 17.6032 83.1685 17.7878 83.3599 17.9336C83.5513 18.0794 83.8498 18.1979 84.2554 18.2891L85.4927 18.5762C86.2082 18.7402 86.7323 18.984 87.0649 19.3076C87.4022 19.6312 87.5708 20.0641 87.5708 20.6064C87.5708 21.2992 87.2814 21.862 86.7026 22.2949C86.1239 22.7279 85.3856 22.9443 84.4878 22.9443C83.6037 22.9443 82.8882 22.7575 82.3413 22.3838C81.799 22.0055 81.4959 21.486 81.4321 20.8252H82.9019C82.9976 21.1169 83.1821 21.3447 83.4556 21.5088C83.729 21.6729 84.0845 21.7549 84.522 21.7549C84.9823 21.7549 85.3582 21.6615 85.6499 21.4746C85.9416 21.2878 86.0874 21.0462 86.0874 20.75C86.0874 20.3171 85.7228 20.014 84.9937 19.8408L83.6948 19.54C82.9839 19.3714 82.4598 19.1208 82.1226 18.7881C81.7899 18.4554 81.6235 18.0133 81.6235 17.4619ZM93.2036 15.2334C94.1515 15.2334 94.9035 15.5798 95.4595 16.2725C96.0155 16.9606 96.2935 17.8949 96.2935 19.0752C96.2935 20.2555 96.0155 21.1921 95.4595 21.8848C94.908 22.5775 94.1606 22.9238 93.2173 22.9238C92.6886 22.9238 92.2238 22.8145 91.8228 22.5957C91.4217 22.3724 91.1232 22.0648 90.9272 21.6729H90.811V25.2754H89.3413V15.3564H90.7563V16.5869H90.8657C91.089 16.1631 91.408 15.8327 91.8228 15.5957C92.2375 15.3542 92.6978 15.2334 93.2036 15.2334ZM92.7866 21.6045C93.411 21.6045 93.8986 21.3812 94.2495 20.9346C94.605 20.4834 94.7827 19.8636 94.7827 19.0752C94.7827 18.2868 94.605 17.6693 94.2495 17.2227C93.8986 16.776 93.4132 16.5527 92.7935 16.5527C92.1737 16.5527 91.6838 16.7806 91.3237 17.2363C90.9637 17.6875 90.7837 18.3027 90.7837 19.082C90.7837 19.8568 90.9637 20.472 91.3237 20.9277C91.6838 21.3789 92.1714 21.6045 92.7866 21.6045ZM101.208 22.9443C100.115 22.9443 99.2557 22.6003 98.6313 21.9121C98.007 21.224 97.6948 20.2783 97.6948 19.0752C97.6948 17.8766 98.007 16.9333 98.6313 16.2451C99.2603 15.557 100.119 15.2129 101.208 15.2129C102.293 15.2129 103.148 15.557 103.772 16.2451C104.401 16.9333 104.715 17.8766 104.715 19.0752C104.715 20.2783 104.403 21.224 103.779 21.9121C103.154 22.6003 102.298 22.9443 101.208 22.9443ZM101.208 21.6387C101.842 21.6387 102.332 21.4154 102.678 20.9688C103.029 20.5176 103.205 19.8864 103.205 19.0752C103.205 18.2686 103.029 17.6419 102.678 17.1953C102.332 16.7441 101.842 16.5186 101.208 16.5186C100.57 16.5186 100.078 16.7419 99.7319 17.1885C99.3856 17.6351 99.2124 18.264 99.2124 19.0752C99.2124 19.891 99.3856 20.5221 99.7319 20.9688C100.078 21.4154 100.57 21.6387 101.208 21.6387ZM106.486 22.8008V15.3564H107.901V16.5391H108.01C108.398 15.6549 109.138 15.2129 110.232 15.2129C111.061 15.2129 111.697 15.4521 112.139 15.9307C112.586 16.4092 112.809 17.0928 112.809 17.9814V22.8008H111.339V18.3506C111.339 17.1566 110.804 16.5596 109.733 16.5596C109.191 16.5596 108.758 16.7305 108.434 17.0723C108.115 17.4095 107.956 17.8675 107.956 18.4463V22.8008H106.486ZM114.908 22.8008V15.3564H116.371V22.8008H114.908ZM116.275 14.1123H114.757L116.473 11.7607H118.196L116.275 14.1123ZM124.833 15.3564L122.154 22.8008H120.575L117.888 15.3564H119.46L121.313 21.2285H121.429L123.275 15.3564H124.833ZM130.398 16.9902C130.07 16.6393 129.635 16.4639 129.092 16.4639C128.55 16.4639 128.103 16.6393 127.752 16.9902C127.402 17.3411 127.206 17.8083 127.165 18.3916H130.924C130.906 17.8037 130.731 17.3366 130.398 16.9902ZM130.917 20.791H132.333C132.164 21.4609 131.795 21.9873 131.225 22.3701C130.66 22.7529 129.954 22.9443 129.106 22.9443C128.04 22.9443 127.199 22.6025 126.583 21.9189C125.973 21.2308 125.667 20.292 125.667 19.1025C125.667 17.9131 125.977 16.9674 126.597 16.2656C127.217 15.5638 128.051 15.2129 129.099 15.2129C130.134 15.2129 130.945 15.5456 131.533 16.2109C132.125 16.8763 132.421 17.7946 132.421 18.9658V19.4785H127.165V19.5605C127.187 20.2168 127.376 20.7363 127.732 21.1191C128.087 21.502 128.559 21.6934 129.147 21.6934C130.045 21.6934 130.635 21.3926 130.917 20.791ZM134.253 22.8008V12.4512H135.723V22.8008H134.253ZM141.759 22.8008V15.3564H143.174V16.5391H143.284C143.671 15.6549 144.412 15.2129 145.505 15.2129C146.335 15.2129 146.971 15.4521 147.413 15.9307C147.859 16.4092 148.083 17.0928 148.083 17.9814V22.8008H146.613V18.3506C146.613 17.1566 146.077 16.5596 145.006 16.5596C144.464 16.5596 144.031 16.7305 143.708 17.0723C143.389 17.4095 143.229 17.8675 143.229 18.4463V22.8008H141.759ZM152.587 21.6865C153.139 21.6865 153.597 21.5316 153.961 21.2217C154.331 20.9118 154.515 20.5244 154.515 20.0596V19.4375L152.697 19.5537C152.186 19.5856 151.81 19.6904 151.569 19.8682C151.327 20.0459 151.207 20.2988 151.207 20.627C151.207 20.9551 151.334 21.2148 151.589 21.4062C151.845 21.5931 152.177 21.6865 152.587 21.6865ZM152.211 22.9238C151.482 22.9238 150.885 22.721 150.42 22.3154C149.96 21.9053 149.73 21.3652 149.73 20.6953C149.73 20.0299 149.969 19.5081 150.448 19.1299C150.926 18.7471 151.61 18.5283 152.499 18.4736L154.515 18.3574V17.7148C154.515 17.3184 154.385 17.0153 154.125 16.8057C153.866 16.5915 153.487 16.4844 152.991 16.4844C152.581 16.4844 152.239 16.5573 151.965 16.7031C151.696 16.8444 151.521 17.0472 151.439 17.3115H150.017C150.09 16.6735 150.402 16.1654 150.954 15.7871C151.51 15.4043 152.211 15.2129 153.059 15.2129C153.989 15.2129 154.707 15.4339 155.212 15.876C155.723 16.3135 155.978 16.9264 155.978 17.7148V22.8008H154.563V21.7549H154.447C154.223 22.1286 153.916 22.418 153.524 22.623C153.137 22.8236 152.699 22.9238 152.211 22.9238Z" fill="#35B48B"/>
</g>
<defs>
<linearGradient id="paint0_linear_19593_6977" x1="108.41" y1="0" x2="108.41" y2="64.0002" gradientUnits="userSpaceOnUse">
<stop stop-color="#108B6A"/>
<stop offset="1" stop-color="#35B48B"/>
</linearGradient>
<clipPath id="clip0_19593_6977">
<rect width="216" height="64" fill="white" transform="translate(0.410156)"/>
</clipPath>
</defs>
</svg>
