<svg width="217" height="64" viewBox="0 0 217 64" fill="none" xmlns="http://www.w3.org/2000/svg">
<g clip-path="url(#clip0_19593_7008)">
<mask id="mask0_19593_7008" style="mask-type:luminance" maskUnits="userSpaceOnUse" x="0" y="0" width="217" height="64">
<path d="M216.407 0H0.410156V64H216.407V0Z" fill="white"/>
</mask>
<g mask="url(#mask0_19593_7008)">
<mask id="mask1_19593_7008" style="mask-type:luminance" maskUnits="userSpaceOnUse" x="0" y="0" width="217" height="64">
<path d="M216.407 0H0.410156V64H216.407V0Z" fill="white"/>
</mask>
<g mask="url(#mask1_19593_7008)">
<path d="M208.406 1.2806C212.111 1.2806 215.127 4.29654 215.127 8.00125V56.0021C215.127 59.7068 212.111 62.7227 208.406 62.7227H8.41141C4.70669 62.7227 1.69076 59.7068 1.69076 56.0021V8.00125C1.69076 4.29319 4.70335 1.2806 8.41141 1.2806H208.409H208.406ZM208.406 0H8.41141C4.01122 0 0.410156 3.60107 0.410156 8.00125V56.0021C0.410156 60.4023 4.01122 64.0033 8.41141 64.0033H208.409C212.81 64.0033 216.411 60.4023 216.411 56.0021V8.00125C216.407 3.60107 212.806 0 208.406 0Z" fill="url(#paint0_linear_19593_7008)"/>
<path d="M109.425 34.7999C105.664 34.7999 102.594 37.662 102.594 41.6075C102.594 45.5529 105.66 48.4117 109.425 48.4117C113.19 48.4117 116.256 45.5229 116.256 41.6075C116.256 37.6921 113.19 34.7999 109.425 34.7999ZM109.425 45.7302C107.362 45.7302 105.583 44.0283 105.583 41.6075C105.583 39.1867 107.362 37.4815 109.425 37.4815C111.488 37.4815 113.264 39.1566 113.264 41.6075C113.264 44.0584 111.485 45.7302 109.425 45.7302ZM94.5226 34.7999C90.7611 34.7999 87.6916 37.662 87.6916 41.6075C87.6916 45.5529 90.7577 48.4117 94.5226 48.4117C98.2875 48.4117 101.354 45.5229 101.354 41.6075C101.354 37.6921 98.2842 34.7999 94.5226 34.7999ZM94.5226 45.7302C92.4629 45.7302 90.6841 44.0283 90.6841 41.6075C90.6841 39.1867 92.4629 37.4815 94.5226 37.4815C96.5823 37.4815 98.3644 39.1566 98.3644 41.6075C98.3644 44.0584 96.5856 45.7302 94.5226 45.7302ZM76.7981 36.8897V39.7752H83.706C83.4987 41.4002 82.9604 42.5838 82.1345 43.4097C81.1281 44.4161 79.5566 45.5228 76.7981 45.5228C72.5451 45.5228 69.2182 42.0957 69.2182 37.8426C69.2182 33.5895 72.5417 30.1623 76.7981 30.1623C79.0919 30.1623 80.767 31.0617 82.0041 32.222L84.0404 30.1857C82.3118 28.5373 80.018 27.2734 76.7981 27.2734C70.9736 27.2734 66.0752 32.018 66.0752 37.8426C66.0752 43.6671 70.9736 48.4117 76.7981 48.4117C79.9411 48.4117 82.3118 47.3786 84.1708 45.4459C86.0767 43.5401 86.6718 40.8585 86.6718 38.6919C86.6718 38.0231 86.6217 37.4046 86.518 36.8897H76.8015H76.7981ZM149.291 39.1299C148.722 37.6085 146.997 34.7999 143.466 34.7999C139.935 34.7999 137.05 37.5584 137.05 41.6075C137.05 45.4225 139.935 48.4117 143.801 48.4117C146.92 48.4117 148.722 46.5059 149.471 45.3958L147.151 43.8477C146.375 44.9812 145.322 45.7302 143.801 45.7302C142.279 45.7302 141.196 45.0347 140.501 43.6705L149.599 39.9056L149.291 39.1332V39.1299ZM140.012 41.4002C139.935 38.7688 142.049 37.4313 143.57 37.4313C144.757 37.4313 145.763 38.0231 146.098 38.8758L140.016 41.4035L140.012 41.4002ZM132.613 47.9971H135.602V27.9957H132.613V47.9971ZM127.715 36.3212H127.611C126.942 35.5221 125.652 34.7999 124.03 34.7999C120.626 34.7999 117.51 37.7891 117.51 41.6309C117.51 45.4727 120.63 48.4084 124.03 48.4084C125.655 48.4084 126.942 47.6862 127.611 46.8603H127.715V47.84C127.715 50.4446 126.324 51.8356 124.08 51.8356C122.251 51.8356 121.114 50.5215 120.653 49.4148L118.048 50.4981C118.794 52.3037 120.78 54.5205 124.08 54.5205C127.584 54.5205 130.55 52.4575 130.55 47.4321V35.2145H127.715V36.3246V36.3212ZM124.287 45.7302C122.224 45.7302 120.499 44.0049 120.499 41.6342C120.499 39.2636 122.224 37.4848 124.287 37.4848C126.35 37.4848 127.922 39.2369 127.922 41.6342C127.922 44.0316 126.324 45.7302 124.287 45.7302ZM163.297 27.999H156.145V48.0005H159.128V40.4238H163.297C166.607 40.4238 169.857 38.0265 169.857 34.2114C169.857 30.3964 166.604 27.999 163.297 27.999ZM163.374 37.6386H159.128V30.7809H163.374C165.608 30.7809 166.875 32.6299 166.875 34.2081C166.875 35.7863 165.608 37.6353 163.374 37.6353M181.824 34.7631C179.664 34.7631 177.424 35.716 176.498 37.8225L179.149 38.9293C179.714 37.8225 180.771 37.4614 181.878 37.4614C183.422 37.4614 184.991 38.3876 185.017 40.0326V40.2399C184.476 39.9323 183.319 39.4676 181.904 39.4676C179.049 39.4676 176.14 41.0357 176.14 43.9714C176.14 46.6496 178.484 48.3716 181.105 48.3716C183.115 48.3716 184.218 47.4722 184.914 46.4156H185.017V47.9603H187.9V40.2901C187.9 36.7392 185.251 34.7598 181.828 34.7598M181.466 45.7201C180.487 45.7201 179.123 45.232 179.123 44.0216C179.123 42.4768 180.821 41.8883 182.289 41.8883C183.6 41.8883 184.218 42.1726 185.017 42.5571C184.787 44.4094 183.192 45.7235 181.466 45.7235M198.398 35.1978L194.975 43.8711H194.871L191.32 35.1978H188.103L193.43 47.3184L190.394 54.0591H193.507L201.715 35.1978H198.395H198.398ZM171.509 47.9938H174.495V27.9923H171.509V47.9938Z" fill="#35B48B"/>
<path d="M33.5586 31.0795L16.5229 49.1584C16.5229 49.1584 16.5229 49.1651 16.5229 49.1684C17.0446 51.1311 18.8367 52.5756 20.9666 52.5756C21.8192 52.5756 22.615 52.3449 23.3004 51.9436L23.3539 51.9102L42.5295 40.8462L33.5553 31.0762L33.5586 31.0795Z" fill="#35B48B" stroke="white" stroke-width="0.5"/>
<path d="M50.7917 27.9995L50.775 27.9895L42.4962 23.1914L33.1709 31.4902L42.5297 40.8457L50.7616 36.0944C52.2061 35.312 53.1857 33.7906 53.1857 32.0386C53.1857 30.2865 52.2194 28.7819 50.7884 27.9995" fill="#35B48B"/>
<path d="M50.7917 27.9995L50.775 27.9895L42.4962 23.1914L33.1709 31.4902L42.5297 40.8457L50.7616 36.0944C52.2061 35.312 53.1857 33.7906 53.1857 32.0386C53.1857 30.2865 52.2194 28.7819 50.7884 27.9995" stroke="white" stroke-width="0.5"/>
<path d="M16.5229 14.8418C16.4192 15.2196 16.3657 15.6175 16.3657 16.0254V47.9736C16.3657 48.3815 16.4192 48.7794 16.5229 49.1572L34.1403 31.5398L16.5195 14.8418H16.5229Z" fill="#35B48B" stroke="white" stroke-width="0.5"/>
<path d="M33.6823 32.0023L42.4994 23.1886L23.3473 12.0845C22.6518 11.6665 21.8393 11.4258 20.9699 11.4258C18.8434 11.4258 17.0479 12.8736 16.5229 14.8396C16.5229 14.8396 16.5229 14.8396 16.5229 14.8429L33.6857 32.0023H33.6823Z" fill="#35B48B" stroke="white" stroke-width="0.5"/>
</g>
</g>
<path d="M67.0178 11.976H70.2378C71.0311 11.976 71.7404 12.102 72.3658 12.354C73.0004 12.5967 73.5371 12.9373 73.9758 13.376C74.4238 13.8147 74.7644 14.342 74.9978 14.958C75.2404 15.574 75.3618 16.2507 75.3618 16.988C75.3618 17.7253 75.2404 18.402 74.9978 19.018C74.7644 19.634 74.4238 20.1613 73.9758 20.6C73.5371 21.0387 73.0004 21.384 72.3658 21.636C71.7404 21.8787 71.0311 22 70.2378 22H67.0178V11.976ZM70.2098 20.488C71.3391 20.488 72.2118 20.18 72.8278 19.564C73.4438 18.948 73.7518 18.0893 73.7518 16.988C73.7518 15.896 73.4438 15.042 72.8278 14.426C72.2118 13.8007 71.3391 13.488 70.2098 13.488H68.5998V20.488H70.2098ZM77.5609 13.922C77.2622 13.922 77.0102 13.8193 76.8049 13.614C76.6089 13.4087 76.5109 13.1613 76.5109 12.872C76.5109 12.5827 76.6089 12.3353 76.8049 12.13C77.0102 11.9247 77.2622 11.822 77.5609 11.822C77.8502 11.822 78.0929 11.9247 78.2889 12.13C78.4942 12.3353 78.5969 12.5827 78.5969 12.872C78.5969 13.1613 78.4942 13.4087 78.2889 13.614C78.0929 13.8193 77.8502 13.922 77.5609 13.922ZM76.7769 22V15.14H78.3309V22H76.7769ZM82.6185 22.224C82.1985 22.224 81.8205 22.168 81.4845 22.056C81.1485 21.944 80.8545 21.7993 80.6025 21.622C80.3505 21.4353 80.1358 21.2253 79.9585 20.992C79.7905 20.7587 79.6598 20.516 79.5665 20.264L80.9665 19.676C81.1251 20.0773 81.3538 20.376 81.6525 20.572C81.9511 20.7587 82.2731 20.852 82.6185 20.852C83.0105 20.852 83.3185 20.7727 83.5425 20.614C83.7665 20.4553 83.8785 20.278 83.8785 20.082C83.8785 19.886 83.7945 19.718 83.6265 19.578C83.4585 19.4287 83.1411 19.298 82.6745 19.186L81.6945 18.948C81.4798 18.9013 81.2605 18.8313 81.0365 18.738C80.8218 18.6353 80.6211 18.5093 80.4345 18.36C80.2478 18.2013 80.0938 18.0147 79.9725 17.8C79.8605 17.576 79.8045 17.3147 79.8045 17.016C79.8045 16.68 79.8745 16.3813 80.0145 16.12C80.1638 15.8587 80.3645 15.6393 80.6165 15.462C80.8685 15.2847 81.1578 15.1493 81.4845 15.056C81.8205 14.9627 82.1751 14.916 82.5485 14.916C82.8565 14.916 83.1505 14.9487 83.4305 15.014C83.7198 15.0793 83.9858 15.1773 84.2285 15.308C84.4711 15.4387 84.6858 15.6067 84.8725 15.812C85.0685 16.008 85.2225 16.2413 85.3345 16.512L83.9625 17.086C83.8318 16.7873 83.6265 16.5727 83.3465 16.442C83.0665 16.302 82.7818 16.232 82.4925 16.232C82.3618 16.232 82.2265 16.2507 82.0865 16.288C81.9558 16.316 81.8345 16.3627 81.7225 16.428C81.6198 16.484 81.5311 16.5587 81.4565 16.652C81.3911 16.7453 81.3585 16.848 81.3585 16.96C81.3585 17.1467 81.4378 17.296 81.5965 17.408C81.7645 17.5107 82.0165 17.604 82.3525 17.688L83.4025 17.954C84.1118 18.1313 84.6298 18.402 84.9565 18.766C85.2925 19.1207 85.4605 19.5407 85.4605 20.026C85.4605 20.3247 85.3905 20.6047 85.2505 20.866C85.1198 21.1273 84.9285 21.3607 84.6765 21.566C84.4245 21.7713 84.1211 21.93 83.7665 22.042C83.4211 22.1633 83.0385 22.224 82.6185 22.224ZM86.4526 15.14H87.9226V16.022H88.0066C88.1933 15.7233 88.4779 15.4667 88.8606 15.252C89.2433 15.028 89.7006 14.916 90.2326 14.916C90.6713 14.916 91.0866 15.0093 91.4786 15.196C91.8799 15.3733 92.2299 15.6253 92.5286 15.952C92.8273 16.2787 93.0653 16.666 93.2426 17.114C93.4199 17.5527 93.5086 18.038 93.5086 18.57C93.5086 19.102 93.4199 19.592 93.2426 20.04C93.0653 20.4787 92.8273 20.8613 92.5286 21.188C92.2299 21.5147 91.8799 21.7713 91.4786 21.958C91.0866 22.1353 90.6713 22.224 90.2326 22.224C89.7006 22.224 89.2433 22.1167 88.8606 21.902C88.4779 21.678 88.1933 21.4167 88.0066 21.118H87.9226L88.0066 22.07V25.024H86.4526V15.14ZM89.9386 20.782C90.1999 20.782 90.4519 20.7307 90.6946 20.628C90.9466 20.5253 91.1613 20.3807 91.3386 20.194C91.5253 19.998 91.6746 19.7647 91.7866 19.494C91.8986 19.2233 91.9546 18.9153 91.9546 18.57C91.9546 18.2247 91.8986 17.9167 91.7866 17.646C91.6746 17.3753 91.5253 17.1467 91.3386 16.96C91.1613 16.764 90.9466 16.6147 90.6946 16.512C90.4519 16.4093 90.1999 16.358 89.9386 16.358C89.6679 16.358 89.4113 16.4093 89.1686 16.512C88.9259 16.6147 88.7113 16.7593 88.5246 16.946C88.3473 17.1327 88.2026 17.366 88.0906 17.646C87.9786 17.9167 87.9226 18.2247 87.9226 18.57C87.9226 18.9153 87.9786 19.228 88.0906 19.508C88.2026 19.7787 88.3473 20.0073 88.5246 20.194C88.7113 20.3807 88.9259 20.5253 89.1686 20.628C89.4113 20.7307 89.6679 20.782 89.9386 20.782ZM97.8764 14.916C98.3991 14.916 98.8797 15.0093 99.3184 15.196C99.7571 15.3733 100.135 15.6253 100.452 15.952C100.77 16.2787 101.017 16.666 101.194 17.114C101.372 17.562 101.46 18.0473 101.46 18.57C101.46 19.0927 101.372 19.578 101.194 20.026C101.017 20.474 100.77 20.8613 100.452 21.188C100.135 21.5147 99.7571 21.7713 99.3184 21.958C98.8797 22.1353 98.3991 22.224 97.8764 22.224C97.3537 22.224 96.8731 22.1353 96.4344 21.958C95.9957 21.7713 95.6177 21.5147 95.3004 21.188C94.9831 20.8613 94.7357 20.474 94.5584 20.026C94.3811 19.578 94.2924 19.0927 94.2924 18.57C94.2924 18.0473 94.3811 17.562 94.5584 17.114C94.7357 16.666 94.9831 16.2787 95.3004 15.952C95.6177 15.6253 95.9957 15.3733 96.4344 15.196C96.8731 15.0093 97.3537 14.916 97.8764 14.916ZM97.8764 20.782C98.1377 20.782 98.3897 20.7307 98.6324 20.628C98.8751 20.5253 99.0897 20.3807 99.2764 20.194C99.4724 20.0073 99.6264 19.7787 99.7384 19.508C99.8504 19.228 99.9064 18.9153 99.9064 18.57C99.9064 18.2247 99.8504 17.9167 99.7384 17.646C99.6264 17.366 99.4724 17.1327 99.2764 16.946C99.0897 16.7593 98.8751 16.6147 98.6324 16.512C98.3897 16.4093 98.1377 16.358 97.8764 16.358C97.6151 16.358 97.3631 16.4093 97.1204 16.512C96.8777 16.6147 96.6584 16.7593 96.4624 16.946C96.2757 17.1327 96.1264 17.366 96.0144 17.646C95.9024 17.9167 95.8464 18.2247 95.8464 18.57C95.8464 18.9153 95.9024 19.228 96.0144 19.508C96.1264 19.7787 96.2757 20.0073 96.4624 20.194C96.6584 20.3807 96.8777 20.5253 97.1204 20.628C97.3631 20.7307 97.6151 20.782 97.8764 20.782ZM103.975 16.064H104.059C104.264 15.7373 104.553 15.4667 104.927 15.252C105.309 15.028 105.739 14.916 106.215 14.916C107.083 14.916 107.731 15.1773 108.161 15.7C108.59 16.2133 108.805 16.8993 108.805 17.758V22H107.251V17.968C107.251 17.3707 107.111 16.9553 106.831 16.722C106.56 16.4793 106.201 16.358 105.753 16.358C105.482 16.358 105.244 16.414 105.039 16.526C104.833 16.638 104.656 16.792 104.507 16.988C104.357 17.1747 104.245 17.394 104.171 17.646C104.096 17.8887 104.059 18.1453 104.059 18.416V22H102.505V15.14H103.975V16.064ZM110.549 13.768L111.207 11.92H112.971L111.851 13.768H110.549ZM110.423 22V15.14H111.977V22H110.423ZM112.933 15.14H114.683L116.531 19.984H116.601L118.491 15.14H120.199L117.329 22H115.775L112.933 15.14ZM127.195 20.362C126.905 20.894 126.495 21.3373 125.963 21.692C125.431 22.0467 124.777 22.224 124.003 22.224C123.489 22.224 123.013 22.1353 122.575 21.958C122.145 21.7713 121.772 21.5147 121.455 21.188C121.137 20.8613 120.89 20.4787 120.713 20.04C120.535 19.592 120.447 19.102 120.447 18.57C120.447 18.0753 120.531 17.6087 120.699 17.17C120.867 16.722 121.1 16.3347 121.399 16.008C121.707 15.672 122.075 15.406 122.505 15.21C122.934 15.014 123.41 14.916 123.933 14.916C124.465 14.916 124.936 15.0047 125.347 15.182C125.767 15.3593 126.121 15.6067 126.411 15.924C126.7 16.2413 126.919 16.624 127.069 17.072C127.227 17.52 127.307 18.01 127.307 18.542C127.307 18.5887 127.307 18.6307 127.307 18.668C127.297 18.7147 127.293 18.7567 127.293 18.794C127.283 18.8313 127.279 18.8687 127.279 18.906H122.001C122.029 19.2327 122.108 19.5173 122.239 19.76C122.369 20.0027 122.528 20.2033 122.715 20.362C122.911 20.5207 123.125 20.6373 123.359 20.712C123.592 20.7867 123.821 20.824 124.045 20.824C124.493 20.824 124.861 20.7167 125.151 20.502C125.44 20.2873 125.678 20.0213 125.865 19.704L127.195 20.362ZM125.753 17.716C125.734 17.576 125.687 17.422 125.613 17.254C125.547 17.0767 125.44 16.918 125.291 16.778C125.151 16.6287 124.964 16.5027 124.731 16.4C124.507 16.2973 124.231 16.246 123.905 16.246C123.457 16.246 123.069 16.3813 122.743 16.652C122.425 16.9133 122.211 17.268 122.099 17.716H125.753ZM128.481 22V11.976H130.035V22H128.481ZM136.145 16.064H136.229C136.434 15.7373 136.723 15.4667 137.097 15.252C137.479 15.028 137.909 14.916 138.385 14.916C139.253 14.916 139.901 15.1773 140.331 15.7C140.76 16.2133 140.975 16.8993 140.975 17.758V22H139.421V17.968C139.421 17.3707 139.281 16.9553 139.001 16.722C138.73 16.4793 138.371 16.358 137.923 16.358C137.652 16.358 137.414 16.414 137.209 16.526C137.003 16.638 136.826 16.792 136.677 16.988C136.527 17.1747 136.415 17.394 136.341 17.646C136.266 17.8887 136.229 18.1453 136.229 18.416V22H134.675V15.14H136.145V16.064ZM145.673 14.916C146.196 14.916 146.677 15.0093 147.115 15.196C147.554 15.3733 147.932 15.6253 148.249 15.952C148.567 16.2787 148.814 16.666 148.991 17.114C149.169 17.562 149.257 18.0473 149.257 18.57C149.257 19.0927 149.169 19.578 148.991 20.026C148.814 20.474 148.567 20.8613 148.249 21.188C147.932 21.5147 147.554 21.7713 147.115 21.958C146.677 22.1353 146.196 22.224 145.673 22.224C145.151 22.224 144.67 22.1353 144.231 21.958C143.793 21.7713 143.415 21.5147 143.097 21.188C142.78 20.8613 142.533 20.474 142.355 20.026C142.178 19.578 142.089 19.0927 142.089 18.57C142.089 18.0473 142.178 17.562 142.355 17.114C142.533 16.666 142.78 16.2787 143.097 15.952C143.415 15.6253 143.793 15.3733 144.231 15.196C144.67 15.0093 145.151 14.916 145.673 14.916ZM145.673 20.782C145.935 20.782 146.187 20.7307 146.429 20.628C146.672 20.5253 146.887 20.3807 147.073 20.194C147.269 20.0073 147.423 19.7787 147.535 19.508C147.647 19.228 147.703 18.9153 147.703 18.57C147.703 18.2247 147.647 17.9167 147.535 17.646C147.423 17.366 147.269 17.1327 147.073 16.946C146.887 16.7593 146.672 16.6147 146.429 16.512C146.187 16.4093 145.935 16.358 145.673 16.358C145.412 16.358 145.16 16.4093 144.917 16.512C144.675 16.6147 144.455 16.7593 144.259 16.946C144.073 17.1327 143.923 17.366 143.811 17.646C143.699 17.9167 143.643 18.2247 143.643 18.57C143.643 18.9153 143.699 19.228 143.811 19.508C143.923 19.7787 144.073 20.0073 144.259 20.194C144.455 20.3807 144.675 20.5253 144.917 20.628C145.16 20.7307 145.412 20.782 145.673 20.782Z" fill="#35B48B"/>
</g>
<defs>
<linearGradient id="paint0_linear_19593_7008" x1="108.41" y1="0" x2="108.41" y2="64.0033" gradientUnits="userSpaceOnUse">
<stop stop-color="#108B6A"/>
<stop offset="1" stop-color="#35B48B"/>
</linearGradient>
<clipPath id="clip0_19593_7008">
<rect width="215.997" height="64" fill="white" transform="translate(0.410156)"/>
</clipPath>
</defs>
</svg>
