<svg width="216" height="64" viewBox="0 0 216 64" fill="none" xmlns="http://www.w3.org/2000/svg">
<g clip-path="url(#clip0_20052_617)">
<mask id="mask0_20052_617" style="mask-type:luminance" maskUnits="userSpaceOnUse" x="0" y="0" width="216" height="64">
<path d="M215.997 0H0V64H215.997V0Z" fill="white"/>
</mask>
<g mask="url(#mask0_20052_617)">
<mask id="mask1_20052_617" style="mask-type:luminance" maskUnits="userSpaceOnUse" x="0" y="0" width="216" height="64">
<path d="M215.997 0H0V64H215.997V0Z" fill="white"/>
</mask>
<g mask="url(#mask1_20052_617)">
<path d="M207.996 64H8.00125C3.60107 64 0 60.3989 0 55.9987V8.00125C0 3.60107 3.60107 0 8.00125 0H207.999C212.399 0 216 3.60107 216 8.00125V56.0021C216 60.4023 212.399 64.0033 207.999 64.0033" fill="url(#paint0_linear_20052_617)"/>
<path d="M207.996 1.2806C211.701 1.2806 214.716 4.29654 214.716 8.00125V56.0021C214.716 59.7068 211.701 62.7227 207.996 62.7227H8.00125C4.29654 62.7227 1.2806 59.7068 1.2806 56.0021V8.00125C1.2806 4.29319 4.29319 1.2806 8.00125 1.2806H207.999H207.996ZM207.996 0H8.00125C3.60107 0 0 3.60107 0 8.00125V56.0021C0 60.4023 3.60107 64.0033 8.00125 64.0033H207.999C212.399 64.0033 216 60.4023 216 56.0021V8.00125C215.997 3.60107 212.396 0 207.996 0Z" fill="url(#paint1_linear_20052_617)"/>
<path d="M109.015 34.7999C105.253 34.7999 102.184 37.662 102.184 41.6075C102.184 45.5529 105.25 48.4117 109.015 48.4117C112.78 48.4117 115.846 45.5229 115.846 41.6075C115.846 37.6921 112.78 34.7999 109.015 34.7999ZM109.015 45.7302C106.952 45.7302 105.173 44.0283 105.173 41.6075C105.173 39.1867 106.952 37.4815 109.015 37.4815C111.078 37.4815 112.853 39.1566 112.853 41.6075C112.853 44.0584 111.075 45.7302 109.015 45.7302ZM94.1125 34.7999C90.3509 34.7999 87.2815 37.662 87.2815 41.6075C87.2815 45.5529 90.3476 48.4117 94.1125 48.4117C97.8774 48.4117 100.943 45.5229 100.943 41.6075C100.943 37.6921 97.874 34.7999 94.1125 34.7999ZM94.1125 45.7302C92.0528 45.7302 90.274 44.0283 90.274 41.6075C90.274 39.1867 92.0528 37.4815 94.1125 37.4815C96.1721 37.4815 97.9543 39.1566 97.9543 41.6075C97.9543 44.0584 96.1755 45.7302 94.1125 45.7302ZM76.388 36.8897V39.7752H83.2959C83.0886 41.4002 82.5503 42.5838 81.7244 43.4097C80.718 44.4161 79.1465 45.5228 76.388 45.5228C72.1349 45.5228 68.808 42.0957 68.808 37.8426C68.808 33.5895 72.1316 30.1623 76.388 30.1623C78.6817 30.1623 80.3569 31.0617 81.594 32.222L83.6302 30.1857C81.9016 28.5373 79.6079 27.2734 76.388 27.2734C70.5634 27.2734 65.665 32.018 65.665 37.8426C65.665 43.6671 70.5634 48.4117 76.388 48.4117C79.531 48.4117 81.9016 47.3786 83.7606 45.4459C85.6665 43.5401 86.2617 40.8585 86.2617 38.6919C86.2617 38.0231 86.2115 37.4046 86.1079 36.8897H76.3913H76.388ZM148.881 39.1299C148.312 37.6085 146.587 34.7999 143.056 34.7999C139.525 34.7999 136.64 37.5584 136.64 41.6075C136.64 45.4225 139.525 48.4117 143.391 48.4117C146.51 48.4117 148.312 46.5059 149.061 45.3958L146.741 43.8477C145.965 44.9812 144.912 45.7302 143.391 45.7302C141.869 45.7302 140.786 45.0347 140.09 43.6705L149.188 39.9056L148.881 39.1332V39.1299ZM139.602 41.4002C139.525 38.7688 141.638 37.4313 143.16 37.4313C144.347 37.4313 145.353 38.0231 145.688 38.8758L139.606 41.4035L139.602 41.4002ZM132.203 47.9971H135.192V27.9957H132.203V47.9971ZM127.304 36.3212H127.201C126.532 35.5221 125.241 34.7999 123.62 34.7999C120.216 34.7999 117.1 37.7891 117.1 41.6309C117.1 45.4727 120.219 48.4084 123.62 48.4084C125.245 48.4084 126.532 47.6862 127.201 46.8603H127.304V47.84C127.304 50.4446 125.914 51.8356 123.67 51.8356C121.841 51.8356 120.704 50.5215 120.243 49.4148L117.638 50.4981C118.384 52.3037 120.37 54.5205 123.67 54.5205C127.174 54.5205 130.14 52.4575 130.14 47.4321V35.2145H127.304V36.3246V36.3212ZM123.877 45.7302C121.814 45.7302 120.089 44.0049 120.089 41.6342C120.089 39.2636 121.814 37.4848 123.877 37.4848C125.94 37.4848 127.512 39.2369 127.512 41.6342C127.512 44.0316 125.914 45.7302 123.877 45.7302ZM162.887 27.999H155.735V48.0005H158.718V40.4238H162.887C166.197 40.4238 169.447 38.0265 169.447 34.2114C169.447 30.3964 166.194 27.999 162.887 27.999ZM162.964 37.6386H158.718V30.7809H162.964C165.198 30.7809 166.465 32.6299 166.465 34.2081C166.465 35.7863 165.198 37.6353 162.964 37.6353M181.414 34.7631C179.254 34.7631 177.014 35.716 176.088 37.8225L178.739 38.9293C179.304 37.8225 180.361 37.4614 181.468 37.4614C183.012 37.4614 184.58 38.3876 184.607 40.0326V40.2399C184.066 39.9323 182.909 39.4676 181.494 39.4676C178.639 39.4676 175.73 41.0357 175.73 43.9714C175.73 46.6496 178.074 48.3716 180.695 48.3716C182.705 48.3716 183.808 47.4722 184.504 46.4156H184.607V47.9603H187.489V40.2901C187.489 36.7392 184.841 34.7598 181.417 34.7598M181.056 45.7201C180.077 45.7201 178.712 45.232 178.712 44.0216C178.712 42.4768 180.411 41.8883 181.879 41.8883C183.19 41.8883 183.808 42.1726 184.607 42.5571C184.376 44.4094 182.782 45.7235 181.056 45.7235M197.988 35.1978L194.564 43.8711H194.461L190.91 35.1978H187.693L193.02 47.3184L189.984 54.0591H193.097L201.305 35.1978H197.985H197.988ZM171.099 47.9938H174.085V27.9923H171.099V47.9938Z" fill="white"/>
<path d="M33.1485 31.0795L16.1128 49.1584C16.1128 49.1584 16.1128 49.1651 16.1128 49.1684C16.6344 51.1311 18.4266 52.5756 20.5564 52.5756C21.4091 52.5756 22.2048 52.3449 22.8903 51.9436L22.9438 51.9102L42.1194 40.8462L33.1451 31.0762L33.1485 31.0795Z" fill="white" stroke="#35B48B" stroke-width="0.5"/>
<path d="M50.3816 27.9995L50.3648 27.9895L42.0861 23.1914L32.7607 31.4902L42.1195 40.8457L50.3515 36.0944C51.7959 35.312 52.7756 33.7906 52.7756 32.0386C52.7756 30.2865 51.8093 28.7819 50.3782 27.9995" fill="white"/>
<path d="M50.3816 27.9995L50.3648 27.9895L42.0861 23.1914L32.7607 31.4902L42.1195 40.8457L50.3515 36.0944C51.7959 35.312 52.7756 33.7906 52.7756 32.0386C52.7756 30.2865 51.8093 28.7819 50.3782 27.9995" stroke="#35B48B" stroke-width="0.5"/>
<path d="M16.1127 14.8418C16.0091 15.2196 15.9556 15.6175 15.9556 16.0254V47.9736C15.9556 48.3815 16.0091 48.7794 16.1127 49.1572L33.7302 31.5398L16.1094 14.8418H16.1127Z" fill="white" stroke="#35B48B" stroke-width="0.5"/>
<path d="M33.2722 32.0023L42.0893 23.1886L22.9371 12.0845C22.2416 11.6665 21.4291 11.4258 20.5598 11.4258C18.4333 11.4258 16.6377 12.8736 16.1128 14.8396C16.1128 14.8396 16.1128 14.8396 16.1128 14.8429L33.2755 32.0023H33.2722Z" fill="white" stroke="#35B48B" stroke-width="0.5"/>
</g>
</g>
<path d="M66.6076 11.976H69.8276C70.6209 11.976 71.3303 12.102 71.9556 12.354C72.5903 12.5967 73.1269 12.9373 73.5656 13.376C74.0136 13.8147 74.3543 14.342 74.5876 14.958C74.8303 15.574 74.9516 16.2507 74.9516 16.988C74.9516 17.7253 74.8303 18.402 74.5876 19.018C74.3543 19.634 74.0136 20.1613 73.5656 20.6C73.1269 21.0387 72.5903 21.384 71.9556 21.636C71.3303 21.8787 70.6209 22 69.8276 22H66.6076V11.976ZM69.7996 20.488C70.9289 20.488 71.8016 20.18 72.4176 19.564C73.0336 18.948 73.3416 18.0893 73.3416 16.988C73.3416 15.896 73.0336 15.042 72.4176 14.426C71.8016 13.8007 70.9289 13.488 69.7996 13.488H68.1896V20.488H69.7996ZM77.1507 13.922C76.852 13.922 76.6 13.8193 76.3947 13.614C76.1987 13.4087 76.1007 13.1613 76.1007 12.872C76.1007 12.5827 76.1987 12.3353 76.3947 12.13C76.6 11.9247 76.852 11.822 77.1507 11.822C77.44 11.822 77.6827 11.9247 77.8787 12.13C78.084 12.3353 78.1867 12.5827 78.1867 12.872C78.1867 13.1613 78.084 13.4087 77.8787 13.614C77.6827 13.8193 77.44 13.922 77.1507 13.922ZM76.3667 22V15.14H77.9207V22H76.3667ZM82.2083 22.224C81.7883 22.224 81.4103 22.168 81.0743 22.056C80.7383 21.944 80.4443 21.7993 80.1923 21.622C79.9403 21.4353 79.7256 21.2253 79.5483 20.992C79.3803 20.7587 79.2496 20.516 79.1563 20.264L80.5563 19.676C80.715 20.0773 80.9436 20.376 81.2423 20.572C81.541 20.7587 81.863 20.852 82.2083 20.852C82.6003 20.852 82.9083 20.7727 83.1323 20.614C83.3563 20.4553 83.4683 20.278 83.4683 20.082C83.4683 19.886 83.3843 19.718 83.2163 19.578C83.0483 19.4287 82.731 19.298 82.2643 19.186L81.2843 18.948C81.0696 18.9013 80.8503 18.8313 80.6263 18.738C80.4116 18.6353 80.211 18.5093 80.0243 18.36C79.8376 18.2013 79.6836 18.0147 79.5623 17.8C79.4503 17.576 79.3943 17.3147 79.3943 17.016C79.3943 16.68 79.4643 16.3813 79.6043 16.12C79.7536 15.8587 79.9543 15.6393 80.2063 15.462C80.4583 15.2847 80.7476 15.1493 81.0743 15.056C81.4103 14.9627 81.765 14.916 82.1383 14.916C82.4463 14.916 82.7403 14.9487 83.0203 15.014C83.3096 15.0793 83.5756 15.1773 83.8183 15.308C84.061 15.4387 84.2756 15.6067 84.4623 15.812C84.6583 16.008 84.8123 16.2413 84.9243 16.512L83.5523 17.086C83.4216 16.7873 83.2163 16.5727 82.9363 16.442C82.6563 16.302 82.3716 16.232 82.0823 16.232C81.9516 16.232 81.8163 16.2507 81.6763 16.288C81.5456 16.316 81.4243 16.3627 81.3123 16.428C81.2096 16.484 81.121 16.5587 81.0463 16.652C80.981 16.7453 80.9483 16.848 80.9483 16.96C80.9483 17.1467 81.0276 17.296 81.1863 17.408C81.3543 17.5107 81.6063 17.604 81.9423 17.688L82.9923 17.954C83.7016 18.1313 84.2196 18.402 84.5463 18.766C84.8823 19.1207 85.0503 19.5407 85.0503 20.026C85.0503 20.3247 84.9803 20.6047 84.8403 20.866C84.7096 21.1273 84.5183 21.3607 84.2663 21.566C84.0143 21.7713 83.711 21.93 83.3563 22.042C83.011 22.1633 82.6283 22.224 82.2083 22.224ZM86.0425 15.14H87.5125V16.022H87.5965C87.7831 15.7233 88.0678 15.4667 88.4505 15.252C88.8331 15.028 89.2905 14.916 89.8225 14.916C90.2611 14.916 90.6765 15.0093 91.0685 15.196C91.4698 15.3733 91.8198 15.6253 92.1185 15.952C92.4171 16.2787 92.6551 16.666 92.8325 17.114C93.0098 17.5527 93.0985 18.038 93.0985 18.57C93.0985 19.102 93.0098 19.592 92.8325 20.04C92.6551 20.4787 92.4171 20.8613 92.1185 21.188C91.8198 21.5147 91.4698 21.7713 91.0685 21.958C90.6765 22.1353 90.2611 22.224 89.8225 22.224C89.2905 22.224 88.8331 22.1167 88.4505 21.902C88.0678 21.678 87.7831 21.4167 87.5965 21.118H87.5125L87.5965 22.07V25.024H86.0425V15.14ZM89.5285 20.782C89.7898 20.782 90.0418 20.7307 90.2845 20.628C90.5365 20.5253 90.7511 20.3807 90.9285 20.194C91.1151 19.998 91.2645 19.7647 91.3765 19.494C91.4885 19.2233 91.5445 18.9153 91.5445 18.57C91.5445 18.2247 91.4885 17.9167 91.3765 17.646C91.2645 17.3753 91.1151 17.1467 90.9285 16.96C90.7511 16.764 90.5365 16.6147 90.2845 16.512C90.0418 16.4093 89.7898 16.358 89.5285 16.358C89.2578 16.358 89.0011 16.4093 88.7585 16.512C88.5158 16.6147 88.3011 16.7593 88.1145 16.946C87.9371 17.1327 87.7925 17.366 87.6805 17.646C87.5685 17.9167 87.5125 18.2247 87.5125 18.57C87.5125 18.9153 87.5685 19.228 87.6805 19.508C87.7925 19.7787 87.9371 20.0073 88.1145 20.194C88.3011 20.3807 88.5158 20.5253 88.7585 20.628C89.0011 20.7307 89.2578 20.782 89.5285 20.782ZM97.4662 14.916C97.9889 14.916 98.4696 15.0093 98.9082 15.196C99.3469 15.3733 99.7249 15.6253 100.042 15.952C100.36 16.2787 100.607 16.666 100.784 17.114C100.962 17.562 101.05 18.0473 101.05 18.57C101.05 19.0927 100.962 19.578 100.784 20.026C100.607 20.474 100.36 20.8613 100.042 21.188C99.7249 21.5147 99.3469 21.7713 98.9082 21.958C98.4696 22.1353 97.9889 22.224 97.4662 22.224C96.9436 22.224 96.4629 22.1353 96.0242 21.958C95.5856 21.7713 95.2076 21.5147 94.8902 21.188C94.5729 20.8613 94.3256 20.474 94.1482 20.026C93.9709 19.578 93.8822 19.0927 93.8822 18.57C93.8822 18.0473 93.9709 17.562 94.1482 17.114C94.3256 16.666 94.5729 16.2787 94.8902 15.952C95.2076 15.6253 95.5856 15.3733 96.0242 15.196C96.4629 15.0093 96.9436 14.916 97.4662 14.916ZM97.4662 20.782C97.7276 20.782 97.9796 20.7307 98.2222 20.628C98.4649 20.5253 98.6796 20.3807 98.8662 20.194C99.0622 20.0073 99.2162 19.7787 99.3282 19.508C99.4402 19.228 99.4962 18.9153 99.4962 18.57C99.4962 18.2247 99.4402 17.9167 99.3282 17.646C99.2162 17.366 99.0622 17.1327 98.8662 16.946C98.6796 16.7593 98.4649 16.6147 98.2222 16.512C97.9796 16.4093 97.7276 16.358 97.4662 16.358C97.2049 16.358 96.9529 16.4093 96.7102 16.512C96.4676 16.6147 96.2482 16.7593 96.0522 16.946C95.8656 17.1327 95.7162 17.366 95.6042 17.646C95.4922 17.9167 95.4362 18.2247 95.4362 18.57C95.4362 18.9153 95.4922 19.228 95.6042 19.508C95.7162 19.7787 95.8656 20.0073 96.0522 20.194C96.2482 20.3807 96.4676 20.5253 96.7102 20.628C96.9529 20.7307 97.2049 20.782 97.4662 20.782ZM103.565 16.064H103.649C103.854 15.7373 104.143 15.4667 104.517 15.252C104.899 15.028 105.329 14.916 105.805 14.916C106.673 14.916 107.321 15.1773 107.751 15.7C108.18 16.2133 108.395 16.8993 108.395 17.758V22H106.841V17.968C106.841 17.3707 106.701 16.9553 106.421 16.722C106.15 16.4793 105.791 16.358 105.343 16.358C105.072 16.358 104.834 16.414 104.629 16.526C104.423 16.638 104.246 16.792 104.097 16.988C103.947 17.1747 103.835 17.394 103.761 17.646C103.686 17.8887 103.649 18.1453 103.649 18.416V22H102.095V15.14H103.565V16.064ZM110.139 13.768L110.797 11.92H112.561L111.441 13.768H110.139ZM110.013 22V15.14H111.567V22H110.013ZM112.523 15.14H114.273L116.121 19.984H116.191L118.081 15.14H119.789L116.919 22H115.365L112.523 15.14ZM126.785 20.362C126.495 20.894 126.085 21.3373 125.553 21.692C125.021 22.0467 124.367 22.224 123.593 22.224C123.079 22.224 122.603 22.1353 122.165 21.958C121.735 21.7713 121.362 21.5147 121.045 21.188C120.727 20.8613 120.48 20.4787 120.303 20.04C120.125 19.592 120.037 19.102 120.037 18.57C120.037 18.0753 120.121 17.6087 120.289 17.17C120.457 16.722 120.69 16.3347 120.989 16.008C121.297 15.672 121.665 15.406 122.095 15.21C122.524 15.014 123 14.916 123.523 14.916C124.055 14.916 124.526 15.0047 124.937 15.182C125.357 15.3593 125.711 15.6067 126.001 15.924C126.29 16.2413 126.509 16.624 126.659 17.072C126.817 17.52 126.897 18.01 126.897 18.542C126.897 18.5887 126.897 18.6307 126.897 18.668C126.887 18.7147 126.883 18.7567 126.883 18.794C126.873 18.8313 126.869 18.8687 126.869 18.906H121.591C121.619 19.2327 121.698 19.5173 121.829 19.76C121.959 20.0027 122.118 20.2033 122.305 20.362C122.501 20.5207 122.715 20.6373 122.949 20.712C123.182 20.7867 123.411 20.824 123.635 20.824C124.083 20.824 124.451 20.7167 124.741 20.502C125.03 20.2873 125.268 20.0213 125.455 19.704L126.785 20.362ZM125.343 17.716C125.324 17.576 125.277 17.422 125.203 17.254C125.137 17.0767 125.03 16.918 124.881 16.778C124.741 16.6287 124.554 16.5027 124.321 16.4C124.097 16.2973 123.821 16.246 123.495 16.246C123.047 16.246 122.659 16.3813 122.333 16.652C122.015 16.9133 121.801 17.268 121.689 17.716H125.343ZM128.071 22V11.976H129.625V22H128.071ZM135.734 16.064H135.818C136.024 15.7373 136.313 15.4667 136.686 15.252C137.069 15.028 137.498 14.916 137.974 14.916C138.842 14.916 139.491 15.1773 139.92 15.7C140.35 16.2133 140.564 16.8993 140.564 17.758V22H139.01V17.968C139.01 17.3707 138.87 16.9553 138.59 16.722C138.32 16.4793 137.96 16.358 137.512 16.358C137.242 16.358 137.004 16.414 136.798 16.526C136.593 16.638 136.416 16.792 136.266 16.988C136.117 17.1747 136.005 17.394 135.93 17.646C135.856 17.8887 135.818 18.1453 135.818 18.416V22H134.264V15.14H135.734V16.064ZM145.263 14.916C145.786 14.916 146.266 15.0093 146.705 15.196C147.144 15.3733 147.522 15.6253 147.839 15.952C148.156 16.2787 148.404 16.666 148.581 17.114C148.758 17.562 148.847 18.0473 148.847 18.57C148.847 19.0927 148.758 19.578 148.581 20.026C148.404 20.474 148.156 20.8613 147.839 21.188C147.522 21.5147 147.144 21.7713 146.705 21.958C146.266 22.1353 145.786 22.224 145.263 22.224C144.74 22.224 144.26 22.1353 143.821 21.958C143.382 21.7713 143.004 21.5147 142.687 21.188C142.37 20.8613 142.122 20.474 141.945 20.026C141.768 19.578 141.679 19.0927 141.679 18.57C141.679 18.0473 141.768 17.562 141.945 17.114C142.122 16.666 142.37 16.2787 142.687 15.952C143.004 15.6253 143.382 15.3733 143.821 15.196C144.26 15.0093 144.74 14.916 145.263 14.916ZM145.263 20.782C145.524 20.782 145.776 20.7307 146.019 20.628C146.262 20.5253 146.476 20.3807 146.663 20.194C146.859 20.0073 147.013 19.7787 147.125 19.508C147.237 19.228 147.293 18.9153 147.293 18.57C147.293 18.2247 147.237 17.9167 147.125 17.646C147.013 17.366 146.859 17.1327 146.663 16.946C146.476 16.7593 146.262 16.6147 146.019 16.512C145.776 16.4093 145.524 16.358 145.263 16.358C145.002 16.358 144.75 16.4093 144.507 16.512C144.264 16.6147 144.045 16.7593 143.849 16.946C143.662 17.1327 143.513 17.366 143.401 17.646C143.289 17.9167 143.233 18.2247 143.233 18.57C143.233 18.9153 143.289 19.228 143.401 19.508C143.513 19.7787 143.662 20.0073 143.849 20.194C144.045 20.3807 144.264 20.5253 144.507 20.628C144.75 20.7307 145.002 20.782 145.263 20.782Z" fill="white"/>
</g>
<defs>
<linearGradient id="paint0_linear_20052_617" x1="108" y1="0" x2="108" y2="64.0033" gradientUnits="userSpaceOnUse">
<stop stop-color="#108B6A"/>
<stop offset="1" stop-color="#35B48B"/>
</linearGradient>
<linearGradient id="paint1_linear_20052_617" x1="108" y1="0" x2="108" y2="64.0033" gradientUnits="userSpaceOnUse">
<stop stop-color="#108B6A"/>
<stop offset="1" stop-color="#35B48B"/>
</linearGradient>
<clipPath id="clip0_20052_617">
<rect width="215.997" height="64" fill="white"/>
</clipPath>
</defs>
</svg>
