<svg width="1280" height="641" viewBox="0 0 1280 641" fill="none" xmlns="http://www.w3.org/2000/svg">
<g clip-path="url(#clip0_20040_549)">
<path d="M897 32C1029.46 32 1141.58 119.013 1179.37 238.996C1170.47 236.228 1161.02 234.721 1151.23 234.72H1012.44C1006.21 234.72 1000.79 230.476 999.247 224.395C997.059 215.767 994.525 206.948 991.718 198.177C983.226 171.847 959.048 154.161 931.553 154.159H860.35C832.848 154.159 808.66 171.855 800.171 198.191C786.478 240.737 779.533 284.987 779.533 329.707C779.533 374.431 786.478 418.685 800.171 461.238C808.66 487.568 832.846 505.269 860.35 505.269H931.553C959.054 505.267 983.237 487.572 991.732 461.224C994.498 452.573 997.01 443.765 999.207 435.047C1000.74 428.957 1006.17 424.695 1012.41 424.695H1151.23C1160.57 424.694 1169.6 423.323 1178.13 420.796C1139.2 538.813 1028.06 624 897 624C733.524 624 601 491.476 601 328C601 164.524 733.524 32.0001 897 32Z" stroke="#35B48B" stroke-width="24"/>
</g>
<defs>
<clipPath id="clip0_20040_549">
<path d="M0 0H740V420C740 542.055 641.055 641 519 641H0V0Z" fill="white"/>
</clipPath>
</defs>
</svg>
